<svg width="1440" height="406" viewBox="0 0 1440 406" fill="none" xmlns="http://www.w3.org/2000/svg">
<g clip-path="url(#clip0_1_388)">
<rect width="1440" height="406" fill="#070707"/>
<g style="mix-blend-mode:color-dodge" opacity="0.55">
<path style="mix-blend-mode:color-dodge" opacity="0.55" d="M808.913 105.64C808.913 105.64 807.962 283.339 960.212 240.176C1112.46 197.012 1083.76 304.502 1124.37 385.545C1164.98 466.587 1288.23 342.963 1324.79 397.943C1361.34 452.924 1305.6 511.302 1354.49 533.319" stroke="url(#paint0_linear_1_388)" stroke-width="1.05548" stroke-miterlimit="10"/>
<path style="mix-blend-mode:color-dodge" opacity="0.55" d="M1355.84 532.975C1307.64 511.267 1361.99 450.426 1323.52 396.741C1285.05 343.057 1163.75 463.358 1122.85 382.208C1081.95 301.058 1108.49 196.841 957.642 238.544C806.794 280.246 808.519 104.213 807.654 103.842" stroke="url(#paint1_linear_1_388)" stroke-width="1.05548" stroke-miterlimit="10"/>
<path style="mix-blend-mode:color-dodge" opacity="0.55" d="M1357.2 532.647C1309.69 511.249 1362.64 447.938 1322.26 395.556C1281.87 343.174 1162.53 460.13 1121.33 378.872C1080.13 297.614 1104.52 196.67 955.078 236.905C805.633 277.14 808.128 102.786 806.395 102.045" stroke="url(#paint2_linear_1_388)" stroke-width="1.05548" stroke-miterlimit="10"/>
<path style="mix-blend-mode:color-dodge" opacity="0.55" d="M1358.56 532.309C1311.73 511.224 1363.29 445.442 1321 394.361C1278.71 343.28 1161.31 456.904 1119.81 375.535C1078.31 294.167 1100.55 196.498 952.506 235.261C804.466 274.023 807.734 101.358 805.135 100.247" stroke="url(#paint3_linear_1_388)" stroke-width="1.05548" stroke-miterlimit="10"/>
<path style="mix-blend-mode:color-dodge" opacity="0.55" d="M1359.92 531.974C1313.79 511.196 1363.95 442.947 1319.75 393.164C1275.55 343.381 1160.1 453.675 1118.3 372.199C1076.5 290.723 1096.58 196.325 949.951 233.634C803.319 270.943 807.351 99.9287 803.89 98.4493" stroke="url(#paint4_linear_1_388)" stroke-width="1.05548" stroke-miterlimit="10"/>
<path style="mix-blend-mode:color-dodge" opacity="0.55" d="M1361.28 531.637C1315.83 511.168 1364.6 440.44 1318.48 391.969C1272.37 343.499 1158.87 450.444 1116.78 368.865C1074.68 287.286 1092.61 196.153 947.374 231.999C802.142 267.846 806.953 98.501 802.624 96.6511" stroke="url(#paint5_linear_1_388)" stroke-width="1.05548" stroke-miterlimit="10"/>
<path style="mix-blend-mode:color-dodge" opacity="0.55" d="M1362.64 531.301C1317.88 511.144 1365.26 437.955 1317.23 390.778C1269.2 343.601 1157.66 447.224 1115.26 365.528C1072.87 283.831 1088.64 195.981 944.808 230.364C800.978 264.748 806.562 97.0749 801.364 94.8545" stroke="url(#paint6_linear_1_388)" stroke-width="1.05548" stroke-miterlimit="10"/>
<path style="mix-blend-mode:color-dodge" opacity="0.55" d="M1363.99 530.963C1319.92 511.116 1365.9 435.459 1315.96 389.578C1266.02 343.697 1156.43 443.995 1113.74 362.193C1071.04 280.391 1084.66 195.809 942.246 228.73C799.828 261.651 806.168 95.6472 800.105 93.0563" stroke="url(#paint7_linear_1_388)" stroke-width="1.05548" stroke-miterlimit="10"/>
<path style="mix-blend-mode:color-dodge" opacity="0.55" d="M1365.36 530.626C1321.97 511.089 1366.56 432.963 1314.71 388.384C1262.86 343.806 1155.22 440.765 1112.23 358.856C1069.23 276.946 1080.7 195.636 939.676 227.092C798.652 258.547 805.783 94.2163 798.852 91.2573" stroke="url(#paint8_linear_1_388)" stroke-width="1.05548" stroke-miterlimit="10"/>
<path style="mix-blend-mode:color-dodge" opacity="0.55" d="M1366.72 530.287C1324.02 511.059 1367.21 430.465 1313.45 387.187C1259.69 343.91 1154 437.539 1110.71 355.52C1067.42 273.5 1076.74 195.463 937.106 225.458C797.477 255.452 805.39 92.782 797.593 89.4598" stroke="url(#paint9_linear_1_388)" stroke-width="1.05548" stroke-miterlimit="10"/>
<path style="mix-blend-mode:color-dodge" opacity="0.55" d="M1368.07 529.95C1326.06 511.035 1367.86 427.971 1312.19 385.994C1256.52 344.017 1152.78 434.312 1109.19 352.187C1065.59 270.062 1072.75 195.293 934.537 223.822C796.32 252.352 804.995 91.363 796.334 87.6632" stroke="url(#paint10_linear_1_388)" stroke-width="1.05548" stroke-miterlimit="10"/>
<path style="mix-blend-mode:color-dodge" opacity="0.55" d="M1369.43 529.616C1328.12 511.008 1368.52 425.476 1310.93 384.797C1253.34 344.118 1151.57 431.084 1107.68 348.851C1063.78 266.618 1068.79 195.119 931.974 222.188C795.162 249.257 804.609 89.9337 795.081 85.8658" stroke="url(#paint11_linear_1_388)" stroke-width="1.05548" stroke-miterlimit="10"/>
<path style="mix-blend-mode:color-dodge" opacity="0.55" d="M1370.79 529.278C1330.16 510.98 1369.17 422.978 1309.67 383.602C1250.18 344.226 1150.35 427.848 1106.16 345.507C1061.96 263.166 1064.81 194.948 929.407 220.552C794 246.155 804.214 88.5085 793.822 84.0677" stroke="url(#paint12_linear_1_388)" stroke-width="1.05548" stroke-miterlimit="10"/>
<path style="mix-blend-mode:color-dodge" opacity="0.55" d="M1372.15 528.94C1332.22 510.954 1369.82 420.482 1308.41 382.407C1247 344.331 1149.13 424.628 1104.64 342.177C1060.14 259.726 1060.84 194.776 926.838 218.917C792.835 243.058 803.821 87.0783 792.563 82.2695" stroke="url(#paint13_linear_1_388)" stroke-width="1.05548" stroke-miterlimit="10"/>
<path style="mix-blend-mode:color-dodge" opacity="0.55" d="M1373.51 528.602C1334.26 510.926 1370.47 417.986 1307.16 381.212C1243.85 344.437 1147.92 421.402 1103.13 338.838C1058.34 256.275 1056.87 194.602 924.27 217.28C791.667 239.957 803.431 85.6503 791.31 80.4712" stroke="url(#paint14_linear_1_388)" stroke-width="1.05548" stroke-miterlimit="10"/>
<path style="mix-blend-mode:color-dodge" opacity="0.55" d="M1374.86 528.265C1336.3 510.898 1371.11 415.489 1305.88 380.014C1240.65 344.54 1146.69 418.173 1101.6 335.514C1056.51 252.855 1052.9 194.438 921.689 215.653C790.48 236.867 803.025 84.2302 790.023 78.6802" stroke="url(#paint15_linear_1_388)" stroke-width="1.05548" stroke-miterlimit="10"/>
<path style="mix-blend-mode:color-dodge" opacity="0.55" d="M1376.23 527.928C1338.35 510.873 1371.77 412.994 1304.63 378.82C1237.49 344.646 1145.48 414.948 1100.09 332.171C1054.7 249.395 1048.92 194.257 919.137 214.01C789.353 233.762 802.648 82.7966 788.791 76.8764" stroke="url(#paint16_linear_1_388)" stroke-width="1.05548" stroke-miterlimit="10"/>
<path style="mix-blend-mode:color-dodge" opacity="0.55" d="M1377.58 527.59C1340.4 510.845 1372.42 410.498 1303.37 377.625C1234.31 344.751 1144.26 411.719 1098.57 328.834C1052.88 245.95 1044.96 194.086 916.565 212.375C788.173 230.664 802.252 81.3687 787.532 75.0782" stroke="url(#paint17_linear_1_388)" stroke-width="1.05548" stroke-miterlimit="10"/>
<path style="mix-blend-mode:color-dodge" opacity="0.55" d="M1378.94 527.256C1342.44 510.818 1373.07 408.001 1302.11 376.431C1231.14 344.86 1143.03 408.493 1097.05 325.498C1051.06 242.504 1040.98 193.915 913.998 210.736C787.013 227.558 801.86 79.9395 786.273 73.2808" stroke="url(#paint18_linear_1_388)" stroke-width="1.05548" stroke-miterlimit="10"/>
<path style="mix-blend-mode:color-dodge" opacity="0.55" d="M1380.3 526.918C1344.49 510.792 1373.73 405.505 1300.85 375.233C1227.97 344.96 1141.82 405.264 1095.53 322.162C1049.24 239.059 1037.02 193.74 911.433 209.104C785.85 224.468 801.471 78.5116 785.02 71.4874" stroke="url(#paint19_linear_1_388)" stroke-width="1.05548" stroke-miterlimit="10"/>
<path style="mix-blend-mode:color-dodge" opacity="0.55" d="M1381.66 526.568C1346.54 510.752 1374.38 402.998 1299.59 374.026C1224.8 345.054 1140.6 402.038 1094.01 318.827C1047.43 235.617 1033.05 193.569 908.868 207.477C784.689 221.385 801.081 77.0937 783.76 69.6941" stroke="url(#paint20_linear_1_388)" stroke-width="1.05548" stroke-miterlimit="10"/>
<path style="mix-blend-mode:color-dodge" opacity="0.55" d="M1383.02 526.242C1348.58 510.735 1375.03 400.511 1298.33 372.842C1221.63 345.174 1139.38 398.809 1092.49 315.49C1045.61 232.172 1029.09 193.395 906.299 205.832C783.513 218.27 800.688 75.6561 782.502 67.886" stroke="url(#paint21_linear_1_388)" stroke-width="1.05548" stroke-miterlimit="10"/>
<path style="mix-blend-mode:color-dodge" opacity="0.55" d="M1384.38 525.906C1350.63 510.709 1375.68 398.017 1297.07 371.649C1218.46 345.281 1138.16 395.581 1090.98 312.153C1043.79 228.725 1025.1 193.224 903.73 204.195C782.358 215.165 800.297 74.2253 781.243 66.0847" stroke="url(#paint22_linear_1_388)" stroke-width="1.05548" stroke-miterlimit="10"/>
<path style="mix-blend-mode:color-dodge" opacity="0.55" d="M1385.73 525.567C1352.68 510.683 1376.33 395.521 1295.81 370.449C1215.28 345.376 1136.94 392.352 1089.46 308.819C1041.98 225.285 1021.14 193.053 901.167 202.562C781.198 212.072 799.91 72.7998 779.99 64.2912" stroke="url(#paint23_linear_1_388)" stroke-width="1.05548" stroke-miterlimit="10"/>
<path style="mix-blend-mode:color-dodge" opacity="0.55" d="M1387.1 525.231C1354.73 510.656 1376.99 393.012 1294.55 369.257C1212.11 345.502 1135.72 389.127 1087.95 305.483C1040.17 221.839 1017.16 192.88 898.612 200.927C780.059 208.974 799.529 71.3738 778.744 62.4948" stroke="url(#paint24_linear_1_388)" stroke-width="1.05548" stroke-miterlimit="10"/>
<path style="mix-blend-mode:color-dodge" opacity="0.55" d="M1388.46 524.895C1356.78 510.63 1377.64 390.528 1293.29 368.062C1208.94 345.595 1134.51 385.9 1086.43 302.149C1038.36 218.397 1013.19 192.696 896.031 199.292C778.87 205.887 799.124 69.9453 777.471 60.6957" stroke="url(#paint25_linear_1_388)" stroke-width="1.05548" stroke-miterlimit="10"/>
<path style="mix-blend-mode:color-dodge" opacity="0.55" d="M1389.81 524.557C1358.82 510.602 1378.29 388.033 1292.03 366.866C1205.77 345.7 1133.29 382.671 1084.91 298.812C1036.53 214.952 1009.22 192.533 893.462 197.654C777.706 202.775 798.73 68.5175 776.212 58.8975" stroke="url(#paint26_linear_1_388)" stroke-width="1.05548" stroke-miterlimit="10"/>
<path style="mix-blend-mode:color-dodge" opacity="0.55" d="M1391.17 524.221C1360.87 510.575 1378.94 385.538 1290.77 365.67C1202.59 345.802 1132.07 379.446 1083.39 295.476C1034.71 211.507 1005.25 192.363 890.892 196.021C776.538 199.679 798.336 67.0962 774.953 57.1009" stroke="url(#paint27_linear_1_388)" stroke-width="1.05548" stroke-miterlimit="10"/>
<path style="mix-blend-mode:color-dodge" opacity="0.55" d="M1392.53 523.883C1362.92 510.55 1379.6 383.04 1289.52 364.476C1199.44 345.911 1130.85 376.217 1081.87 292.135C1032.89 208.053 1001.27 192.191 888.326 194.384C775.384 196.578 797.945 65.6613 773.693 55.3027" stroke="url(#paint28_linear_1_388)" stroke-width="1.05548" stroke-miterlimit="10"/>
<path style="mix-blend-mode:color-dodge" opacity="0.55" d="M1393.89 523.545C1364.97 510.521 1380.25 380.544 1288.25 363.28C1196.26 346.016 1129.63 372.991 1080.37 288.803C1031.11 204.616 997.308 192.017 885.76 192.75C774.213 193.482 797.558 64.2334 772.441 53.5044" stroke="url(#paint29_linear_1_388)" stroke-width="1.05548" stroke-miterlimit="10"/>
<path style="mix-blend-mode:color-dodge" opacity="0.55" d="M1395.24 523.209C1367.01 510.494 1380.89 378.05 1286.99 362.084C1193.08 346.117 1128.41 369.763 1078.84 285.47C1029.26 201.177 993.331 191.84 883.177 191.114C773.024 190.388 797.15 62.8067 771.188 51.7079" stroke="url(#paint30_linear_1_388)" stroke-width="1.05548" stroke-miterlimit="10"/>
<path style="mix-blend-mode:color-dodge" opacity="0.55" d="M1396.6 522.873C1369.06 510.468 1381.55 375.551 1285.73 360.888C1189.91 346.225 1127.2 366.538 1077.32 282.132C1027.44 197.727 989.364 191.672 880.623 189.479C771.883 187.285 796.769 61.3761 769.929 49.9089" stroke="url(#paint31_linear_1_388)" stroke-width="1.05548" stroke-miterlimit="10"/>
<path style="mix-blend-mode:color-dodge" opacity="0.55" d="M1397.96 522.535C1371.1 510.44 1382.2 373.056 1284.47 359.691C1186.74 346.326 1125.98 363.305 1075.8 278.794C1025.62 194.283 985.405 191.499 878.056 187.842C770.707 184.185 796.377 59.9489 768.656 48.1107" stroke="url(#paint32_linear_1_388)" stroke-width="1.05548" stroke-miterlimit="10"/>
<path style="mix-blend-mode:color-dodge" opacity="0.55" d="M1399.32 522.199C1373.15 510.413 1382.85 370.561 1283.21 358.499C1183.56 346.437 1124.75 360.082 1074.28 275.461C1023.81 190.839 981.417 191.33 875.486 186.209C769.554 181.087 795.993 58.5228 767.404 46.3141" stroke="url(#paint33_linear_1_388)" stroke-width="1.05548" stroke-miterlimit="10"/>
<path style="mix-blend-mode:color-dodge" opacity="0.55" d="M1400.68 521.861C1375.2 510.388 1383.5 368.063 1281.95 357.302C1180.4 346.54 1123.54 356.858 1072.77 272.124C1021.99 187.39 977.45 191.156 872.923 184.572C768.396 177.987 795.595 57.0948 766.151 44.516" stroke="url(#paint34_linear_1_388)" stroke-width="1.05548" stroke-miterlimit="10"/>
<path style="mix-blend-mode:color-dodge" opacity="0.55" d="M1402.04 521.523C1377.25 510.359 1384.16 365.567 1280.69 356.106C1177.22 346.645 1122.32 353.624 1071.25 268.79C1020.17 183.955 973.481 190.982 870.356 182.937C767.231 174.892 795.204 55.6669 764.892 42.7128" stroke="url(#paint35_linear_1_388)" stroke-width="1.05548" stroke-miterlimit="10"/>
<path style="mix-blend-mode:color-dodge" opacity="0.55" d="M1403.39 521.187C1379.29 510.333 1384.81 363.073 1279.43 354.92C1174.05 346.767 1121.1 350.406 1069.73 265.462C1018.36 180.517 969.507 190.812 867.787 181.302C766.067 171.792 794.81 54.2386 763.632 40.9212" stroke="url(#paint36_linear_1_388)" stroke-width="1.05548" stroke-miterlimit="10"/>
<path style="mix-blend-mode:color-dodge" opacity="0.55" d="M1404.75 520.848C1381.35 510.305 1385.45 360.575 1278.16 353.717C1170.88 346.86 1119.88 347.17 1068.21 262.118C1016.55 177.065 965.533 190.64 865.22 179.667C764.907 168.694 794.417 52.7986 762.373 39.1228" stroke="url(#paint37_linear_1_388)" stroke-width="1.05548" stroke-miterlimit="10"/>
<path style="mix-blend-mode:color-dodge" opacity="0.55" d="M1406.12 520.514C1383.39 510.285 1386.11 358.08 1276.91 352.521C1167.72 346.962 1118.67 343.945 1066.7 258.779C1014.72 173.614 961.569 190.469 862.655 178.031C763.741 165.593 794.032 51.384 761.121 37.3256" stroke="url(#paint38_linear_1_388)" stroke-width="1.05548" stroke-miterlimit="10"/>
<path style="mix-blend-mode:color-dodge" opacity="0.55" d="M1407.47 520.176C1385.44 510.252 1386.76 355.584 1275.64 351.325C1164.53 347.066 1117.45 340.715 1065.18 255.445C1012.91 170.175 957.59 190.295 860.086 176.396C762.582 162.498 793.638 49.9561 759.861 35.5273" stroke="url(#paint39_linear_1_388)" stroke-width="1.05548" stroke-miterlimit="10"/>
<path style="mix-blend-mode:color-dodge" opacity="0.55" d="M1408.83 519.838C1387.48 510.223 1387.41 353.086 1274.39 350.123C1161.37 347.16 1116.23 337.489 1063.66 252.111C1011.09 166.732 953.618 190.126 857.516 174.759C761.414 159.393 793.244 48.5259 758.602 33.7291" stroke="url(#paint40_linear_1_388)" stroke-width="1.05548" stroke-miterlimit="10"/>
<path style="mix-blend-mode:color-dodge" opacity="0.55" d="M1410.19 519.5C1389.53 510.21 1388.06 350.59 1273.13 348.935C1158.19 347.28 1115.01 334.248 1062.14 248.774C1009.27 163.3 949.652 189.952 854.949 173.127C760.247 156.302 792.853 47.1005 757.343 31.9331" stroke="url(#paint41_linear_1_388)" stroke-width="1.05548" stroke-miterlimit="10"/>
<path style="mix-blend-mode:color-dodge" opacity="0.55" d="M1411.55 519.164C1391.58 510.171 1388.71 348.096 1271.87 347.739C1155.04 347.382 1113.79 331.035 1060.63 245.439C1007.46 159.843 945.685 189.779 852.387 171.489C759.089 153.199 792.465 45.6721 756.09 30.1343" stroke="url(#paint42_linear_1_388)" stroke-width="1.05548" stroke-miterlimit="10"/>
<path style="mix-blend-mode:color-dodge" opacity="0.55" d="M1412.9 518.826C1393.63 510.143 1389.37 345.6 1270.61 346.544C1151.85 347.487 1112.57 327.806 1059.11 242.102C1005.64 156.398 941.711 189.607 849.818 169.845C757.925 150.082 792.077 44.2347 754.831 28.3263" stroke="url(#paint43_linear_1_388)" stroke-width="1.05548" stroke-miterlimit="10"/>
<path style="mix-blend-mode:color-dodge" opacity="0.55" d="M1414.26 518.488C1395.67 510.117 1390.02 343.102 1269.35 345.349C1148.68 347.595 1111.35 324.579 1057.59 238.763C1003.83 152.946 937.739 189.433 847.246 168.217C756.752 147.002 791.678 42.8165 753.571 26.5426" stroke="url(#paint44_linear_1_388)" stroke-width="1.05548" stroke-miterlimit="10"/>
<path style="mix-blend-mode:color-dodge" opacity="0.55" d="M1415.62 518.154C1397.72 510.09 1390.67 340.607 1268.08 344.154C1145.5 347.701 1110.14 321.351 1056.07 235.432C1002 149.512 933.768 189.269 844.679 166.584C755.59 143.898 791.286 41.3873 752.312 24.7404" stroke="url(#paint45_linear_1_388)" stroke-width="1.05548" stroke-miterlimit="10"/>
<path style="mix-blend-mode:color-dodge" opacity="0.55" d="M1416.99 517.814C1399.77 510.072 1391.34 338.113 1266.84 342.957C1142.33 347.802 1108.92 318.113 1054.56 232.093C1000.19 146.073 929.801 189.089 842.116 164.952C754.431 140.815 790.902 39.9554 751.06 22.9429" stroke="url(#paint46_linear_1_388)" stroke-width="1.05548" stroke-miterlimit="10"/>
<path style="mix-blend-mode:color-dodge" opacity="0.55" d="M1418.34 517.48C1401.81 510.037 1391.98 335.615 1265.57 341.763C1139.17 347.911 1107.7 314.897 1053.04 228.76C998.372 142.622 925.835 188.918 839.547 163.313C753.259 137.709 790.505 38.5357 749.8 21.1456" stroke="url(#paint47_linear_1_388)" stroke-width="1.05548" stroke-miterlimit="10"/>
<path style="mix-blend-mode:color-dodge" opacity="0.55" d="M1419.7 517.141C1403.86 510.009 1392.63 333.119 1264.31 340.565C1135.99 348.011 1106.48 311.668 1051.51 225.423C996.549 139.177 921.855 188.746 836.977 161.676C752.098 134.606 790.11 37.1052 748.548 19.3377" stroke="url(#paint48_linear_1_388)" stroke-width="1.05548" stroke-miterlimit="10"/>
<path style="mix-blend-mode:color-dodge" opacity="0.55" d="M1421.06 516.804C1405.91 509.981 1393.28 330.624 1263.06 339.373C1132.83 348.122 1105.27 308.442 1050 222.086C994.743 135.731 917.889 188.572 834.416 160.042C750.942 131.512 789.723 35.6755 747.282 17.5491" stroke="url(#paint49_linear_1_388)" stroke-width="1.05548" stroke-miterlimit="10"/>
<path style="mix-blend-mode:color-dodge" opacity="0.55" d="M1422.43 516.466C1407.97 509.955 1393.94 328.126 1261.8 338.175C1129.66 348.225 1104.05 305.213 1048.48 218.752C992.921 132.291 913.915 188.4 831.841 158.405C749.767 128.409 789.324 34.2474 746.022 15.7508" stroke="url(#paint50_linear_1_388)" stroke-width="1.05548" stroke-miterlimit="10"/>
<path style="mix-blend-mode:color-dodge" opacity="0.55" d="M1423.78 516.13C1409.99 509.928 1394.59 325.629 1260.53 336.981C1126.48 348.334 1102.83 301.988 1046.97 215.417C991.116 128.846 909.951 188.23 829.287 156.762C748.623 125.294 788.939 32.8214 744.77 13.9543" stroke="url(#paint51_linear_1_388)" stroke-width="1.05548" stroke-miterlimit="10"/>
<path style="mix-blend-mode:color-dodge" opacity="0.55" d="M1425.13 515.793C1412.05 509.9 1395.24 323.135 1259.27 335.786C1123.31 348.436 1101.61 298.754 1045.45 212.079C989.285 125.405 905.973 188.048 826.703 155.134C747.432 122.22 788.538 31.3929 743.504 12.1553" stroke="url(#paint52_linear_1_388)" stroke-width="1.05548" stroke-miterlimit="10"/>
<path style="mix-blend-mode:color-dodge" opacity="0.55" d="M1426.49 515.466C1414.09 509.884 1395.88 320.647 1258.01 334.603C1120.14 348.559 1100.39 295.532 1043.93 208.743C987.468 121.954 902.001 187.884 824.14 153.5C746.28 119.116 788.152 29.9656 742.252 10.3576" stroke="url(#paint53_linear_1_388)" stroke-width="1.05548" stroke-miterlimit="10"/>
<path style="mix-blend-mode:color-dodge" opacity="0.55" d="M1427.85 515.119C1416.15 509.847 1396.53 318.142 1256.75 333.394C1116.96 348.646 1099.17 292.304 1042.41 205.407C985.65 118.51 898.026 187.711 821.571 151.861C745.115 116.012 787.757 28.5342 740.992 8.56532" stroke="url(#paint54_linear_1_388)" stroke-width="1.05548" stroke-miterlimit="10"/>
<path style="mix-blend-mode:color-dodge" opacity="0.55" d="M1429.21 514.781C1418.19 509.819 1397.2 315.647 1255.5 332.199C1113.8 348.751 1097.96 289.078 1040.9 202.073C983.83 115.068 894.062 187.539 819.011 150.229C743.959 112.919 787.373 27.1113 739.739 6.76232" stroke="url(#paint55_linear_1_388)" stroke-width="1.05548" stroke-miterlimit="10"/>
<path style="mix-blend-mode:color-dodge" opacity="0.55" d="M1430.56 514.445C1420.23 509.8 1397.84 313.15 1254.23 331.005C1110.62 348.861 1096.73 285.85 1039.37 198.738C982.011 111.625 890.083 187.376 816.434 148.594C742.786 109.811 786.98 25.6829 738.473 4.96808" stroke="url(#paint56_linear_1_388)" stroke-width="1.05548" stroke-miterlimit="10"/>
<path style="mix-blend-mode:color-dodge" opacity="0.55" d="M1431.93 514.107C1422.29 509.766 1398.5 310.654 1252.98 329.808C1107.47 348.961 1095.53 282.633 1037.87 195.401C980.215 108.168 886.12 187.194 813.885 146.959C741.651 106.724 786.598 24.2549 737.234 3.16986" stroke="url(#paint57_linear_1_388)" stroke-width="1.05548" stroke-miterlimit="10"/>
<path style="mix-blend-mode:color-dodge" opacity="0.55" d="M1433.29 513.769C1424.33 509.738 1399.15 308.158 1251.72 328.612C1104.28 349.066 1094.3 279.394 1036.35 192.064C978.403 104.734 882.158 187.023 811.319 145.322C740.479 103.621 786.207 22.8247 735.975 1.37154" stroke="url(#paint58_linear_1_388)" stroke-width="1.05548" stroke-miterlimit="10"/>
<path style="mix-blend-mode:color-dodge" opacity="0.55" d="M1434.64 513.434C1426.38 509.713 1399.8 305.663 1250.45 327.418C1101.11 349.172 1093.08 276.162 1034.82 188.73C976.568 101.299 878.174 186.849 808.747 143.688C739.319 100.527 785.813 21.4028 734.716 -0.425607" stroke="url(#paint59_linear_1_388)" stroke-width="1.05548" stroke-miterlimit="10"/>
<path style="mix-blend-mode:color-dodge" opacity="0.55" d="M1436 513.097C1428.43 509.685 1400.45 303.165 1249.2 326.223C1097.94 349.28 1091.87 272.94 1033.31 185.391C974.745 97.8426 874.206 186.675 806.17 142.061C738.134 97.446 785.412 19.9798 733.449 -2.21431" stroke="url(#paint60_linear_1_388)" stroke-width="1.05548" stroke-miterlimit="10"/>
<path style="mix-blend-mode:color-dodge" opacity="0.55" d="M1437.36 512.759C1430.47 509.662 1401.1 300.67 1247.94 325.025C1094.77 349.381 1090.64 269.711 1031.79 182.057C972.938 94.4032 870.235 186.506 803.604 140.417C736.973 94.327 785.021 18.5424 732.19 -4.02215" stroke="url(#paint61_linear_1_388)" stroke-width="1.05548" stroke-miterlimit="10"/>
<path style="mix-blend-mode:color-dodge" opacity="0.55" d="M1438.72 512.423C1432.52 509.633 1401.75 298.175 1246.67 323.832C1091.59 349.488 1089.42 266.486 1030.27 178.722C971.116 90.9578 866.261 186.334 801.035 138.779C735.808 91.2239 784.627 17.1115 730.931 -5.8235" stroke="url(#paint62_linear_1_388)" stroke-width="1.05548" stroke-miterlimit="10"/>
<path style="mix-blend-mode:color-dodge" opacity="0.55" d="M1440.08 512.085C1434.57 509.605 1402.41 295.677 1245.42 322.636C1088.43 349.596 1088.21 263.26 1028.75 175.385C969.301 87.5107 862.294 186.162 798.472 137.146C734.65 88.1312 784.24 15.6861 729.678 -7.61692" stroke="url(#paint63_linear_1_388)" stroke-width="1.05548" stroke-miterlimit="10"/>
<path style="mix-blend-mode:color-dodge" opacity="0.55" d="M1441.44 511.747C1436.62 509.577 1403.05 293.181 1244.16 321.439C1085.26 349.696 1086.99 260.028 1027.25 172.049C967.515 84.0694 858.325 185.988 795.905 135.512C733.485 85.0359 783.849 14.2583 728.419 -9.4153" stroke="url(#paint64_linear_1_388)" stroke-width="1.05548" stroke-miterlimit="10"/>
<path style="mix-blend-mode:color-dodge" opacity="0.55" d="M1442.79 511.408C1438.66 509.545 1403.71 290.683 1242.89 320.24C1082.08 349.798 1085.77 256.803 1025.73 168.716C965.682 80.6286 854.358 185.818 793.343 133.872C732.328 81.9261 783.462 12.8278 727.18 -11.2158" stroke="url(#paint65_linear_1_388)" stroke-width="1.05548" stroke-miterlimit="10"/>
<path style="mix-blend-mode:color-dodge" opacity="0.55" d="M1444.15 511.074C1440.71 509.526 1404.36 288.188 1241.63 319.049C1078.91 349.91 1084.55 253.576 1024.2 165.378C963.853 77.1805 850.38 185.645 790.769 132.241C731.158 78.8372 783.064 11.4039 725.901 -13.0107" stroke="url(#paint66_linear_1_388)" stroke-width="1.05548" stroke-miterlimit="10"/>
<path style="mix-blend-mode:color-dodge" opacity="0.55" d="M1445.51 510.737C1442.76 509.484 1405.01 285.693 1240.37 317.854C1075.73 350.016 1083.34 250.348 1022.68 162.042C962.024 73.7358 846.407 185.471 788.188 130.604C729.968 75.7367 782.648 9.97322 724.634 -14.8065" stroke="url(#paint67_linear_1_388)" stroke-width="1.05548" stroke-miterlimit="10"/>
<path style="mix-blend-mode:color-dodge" opacity="0.55" d="M1446.87 510.4C1444.81 509.469 1405.67 283.206 1239.12 316.661C1072.57 350.115 1082.11 247.122 1021.17 158.706C960.218 70.2905 842.439 185.301 785.634 128.971C728.83 72.6413 782.28 8.54751 723.389 -16.6054" stroke="url(#paint68_linear_1_388)" stroke-width="1.05548" stroke-miterlimit="10"/>
<path style="mix-blend-mode:color-dodge" opacity="0.55" d="M1448.23 510.062C1446.85 509.443 1406.32 280.7 1237.86 315.463C1069.4 350.225 1080.91 243.893 1019.65 155.372C958.391 66.8504 838.467 185.126 783.065 127.334C727.663 69.5412 781.896 7.11995 722.129 -18.4038" stroke="url(#paint69_linear_1_388)" stroke-width="1.05548" stroke-miterlimit="10"/>
<path style="mix-blend-mode:color-dodge" opacity="0.55" d="M1449.58 509.724C1448.9 509.415 1406.97 278.204 1236.59 314.265C1066.22 350.326 1079.67 240.664 1018.13 152.033C956.579 63.4011 834.506 184.953 780.496 125.697C726.485 66.4408 781.492 5.68936 720.87 -20.2045" stroke="url(#paint70_linear_1_388)" stroke-width="1.05548" stroke-miterlimit="10"/>
<path style="mix-blend-mode:color-dodge" opacity="0.55" d="M1450.94 509.386C1450.94 509.386 1407.62 275.706 1235.33 313.072C1063.05 350.438 1078.45 237.437 1016.61 148.698C954.768 59.9592 830.522 184.783 777.929 124.062C725.336 63.3414 781.101 4.26892 719.611 -22.0002" stroke="url(#paint71_linear_1_388)" stroke-width="1.05548" stroke-miterlimit="10"/>
</g>
</g>
<defs>
<linearGradient id="paint0_linear_1_388" x1="-1.96466e+06" y1="11814.6" x2="671270" y2="93640.5" gradientUnits="userSpaceOnUse">
<stop stop-color="#C9F2EF"/>
<stop offset="1" stop-color="#000054"/>
</linearGradient>
<linearGradient id="paint1_linear_1_388" x1="-1.02173e+06" y1="-515396" x2="229602" y2="349990" gradientUnits="userSpaceOnUse">
<stop stop-color="#C9F2EF"/>
<stop offset="1" stop-color="#000054"/>
</linearGradient>
<linearGradient id="paint2_linear_1_388" x1="-1.03721e+06" y1="-512304" x2="232745" y2="352017" gradientUnits="userSpaceOnUse">
<stop stop-color="#C9F2EF"/>
<stop offset="1" stop-color="#000054"/>
</linearGradient>
<linearGradient id="paint3_linear_1_388" x1="-1.05422e+06" y1="-488043" x2="213100" y2="377809" gradientUnits="userSpaceOnUse">
<stop stop-color="#C9F2EF"/>
<stop offset="1" stop-color="#000054"/>
</linearGradient>
<linearGradient id="paint4_linear_1_388" x1="-1.07046e+06" y1="-485502" x2="200406" y2="397455" gradientUnits="userSpaceOnUse">
<stop stop-color="#C9F2EF"/>
<stop offset="1" stop-color="#000054"/>
</linearGradient>
<linearGradient id="paint5_linear_1_388" x1="-1.08486e+06" y1="-481750" x2="204920" y2="398950" gradientUnits="userSpaceOnUse">
<stop stop-color="#C9F2EF"/>
<stop offset="1" stop-color="#000054"/>
</linearGradient>
<linearGradient id="paint6_linear_1_388" x1="-1.10059e+06" y1="-480071" x2="192193" y2="418651" gradientUnits="userSpaceOnUse">
<stop stop-color="#C9F2EF"/>
<stop offset="1" stop-color="#000054"/>
</linearGradient>
<linearGradient id="paint7_linear_1_388" x1="-1.11615e+06" y1="-476895" x2="185424" y2="432399" gradientUnits="userSpaceOnUse">
<stop stop-color="#C9F2EF"/>
<stop offset="1" stop-color="#000054"/>
</linearGradient>
<linearGradient id="paint8_linear_1_388" x1="-1.12884e+06" y1="-476287" x2="185776" y2="438242" gradientUnits="userSpaceOnUse">
<stop stop-color="#C9F2EF"/>
<stop offset="1" stop-color="#000054"/>
</linearGradient>
<linearGradient id="paint9_linear_1_388" x1="-1.14393e+06" y1="-473406" x2="179269" y2="452001" gradientUnits="userSpaceOnUse">
<stop stop-color="#C9F2EF"/>
<stop offset="1" stop-color="#000054"/>
</linearGradient>
<linearGradient id="paint10_linear_1_388" x1="-1.1557e+06" y1="-473283" x2="180621" y2="457085" gradientUnits="userSpaceOnUse">
<stop stop-color="#C9F2EF"/>
<stop offset="1" stop-color="#000054"/>
</linearGradient>
<linearGradient id="paint11_linear_1_388" x1="-1.17003e+06" y1="-470963" x2="174561" y2="470601" gradientUnits="userSpaceOnUse">
<stop stop-color="#C9F2EF"/>
<stop offset="1" stop-color="#000054"/>
</linearGradient>
<linearGradient id="paint12_linear_1_388" x1="-1.18374e+06" y1="-472891" x2="160601" y2="490831" gradientUnits="userSpaceOnUse">
<stop stop-color="#C9F2EF"/>
<stop offset="1" stop-color="#000054"/>
</linearGradient>
<linearGradient id="paint13_linear_1_388" x1="-1.23663e+06" y1="-473414" x2="169377" y2="512636" gradientUnits="userSpaceOnUse">
<stop stop-color="#C9F2EF"/>
<stop offset="1" stop-color="#000054"/>
</linearGradient>
<linearGradient id="paint14_linear_1_388" x1="-1.25247e+06" y1="-473775" x2="164540" y2="526772" gradientUnits="userSpaceOnUse">
<stop stop-color="#C9F2EF"/>
<stop offset="1" stop-color="#000054"/>
</linearGradient>
<linearGradient id="paint15_linear_1_388" x1="-1.26379e+06" y1="-431031" x2="140881" y2="555864" gradientUnits="userSpaceOnUse">
<stop stop-color="#C9F2EF"/>
<stop offset="1" stop-color="#000054"/>
</linearGradient>
<linearGradient id="paint16_linear_1_388" x1="-1.27805e+06" y1="-429646" x2="134942" y2="570655" gradientUnits="userSpaceOnUse">
<stop stop-color="#C9F2EF"/>
<stop offset="1" stop-color="#000054"/>
</linearGradient>
<linearGradient id="paint17_linear_1_388" x1="-1.29119e+06" y1="-435898" x2="118475" y2="592612" gradientUnits="userSpaceOnUse">
<stop stop-color="#C9F2EF"/>
<stop offset="1" stop-color="#000054"/>
</linearGradient>
<linearGradient id="paint18_linear_1_388" x1="-1.29561e+06" y1="-438259" x2="140297" y2="581527" gradientUnits="userSpaceOnUse">
<stop stop-color="#C9F2EF"/>
<stop offset="1" stop-color="#000054"/>
</linearGradient>
<linearGradient id="paint19_linear_1_388" x1="-1.30434e+06" y1="-451629" x2="126515" y2="599821" gradientUnits="userSpaceOnUse">
<stop stop-color="#C9F2EF"/>
<stop offset="1" stop-color="#000054"/>
</linearGradient>
<linearGradient id="paint20_linear_1_388" x1="-1.30049e+06" y1="-462525" x2="157999" y2="577503" gradientUnits="userSpaceOnUse">
<stop stop-color="#C9F2EF"/>
<stop offset="1" stop-color="#000054"/>
</linearGradient>
<linearGradient id="paint21_linear_1_388" x1="-1.29888e+06" y1="-491346" x2="152754" y2="585200" gradientUnits="userSpaceOnUse">
<stop stop-color="#C9F2EF"/>
<stop offset="1" stop-color="#000054"/>
</linearGradient>
<linearGradient id="paint22_linear_1_388" x1="-1.28709e+06" y1="-525742" x2="170903" y2="570566" gradientUnits="userSpaceOnUse">
<stop stop-color="#C9F2EF"/>
<stop offset="1" stop-color="#000054"/>
</linearGradient>
<linearGradient id="paint23_linear_1_388" x1="-1.24054e+06" y1="-588400" x2="245726" y2="490946" gradientUnits="userSpaceOnUse">
<stop stop-color="#C9F2EF"/>
<stop offset="1" stop-color="#000054"/>
</linearGradient>
<linearGradient id="paint24_linear_1_388" x1="-1.15269e+06" y1="-736944" x2="327904" y2="393683" gradientUnits="userSpaceOnUse">
<stop stop-color="#C9F2EF"/>
<stop offset="1" stop-color="#000054"/>
</linearGradient>
<linearGradient id="paint25_linear_1_388" x1="-867924" y1="-1.13822e+06" x2="631222" y2="29046.5" gradientUnits="userSpaceOnUse">
<stop stop-color="#C9F2EF"/>
<stop offset="1" stop-color="#000054"/>
</linearGradient>
<linearGradient id="paint26_linear_1_388" x1="4.71132e+06" y1="-3.76465e+06" x2="3.19357e+06" y2="-4.94951e+06" gradientUnits="userSpaceOnUse">
<stop stop-color="#C9F2EF"/>
<stop offset="1" stop-color="#000054"/>
</linearGradient>
<linearGradient id="paint27_linear_1_388" x1="1.25928e+06" y1="341588" x2="-607429" y2="-1.1539e+06" gradientUnits="userSpaceOnUse">
<stop stop-color="#C9F2EF"/>
<stop offset="1" stop-color="#000054"/>
</linearGradient>
<linearGradient id="paint28_linear_1_388" x1="871688" y1="600727" x2="-801351" y2="-750692" gradientUnits="userSpaceOnUse">
<stop stop-color="#C9F2EF"/>
<stop offset="1" stop-color="#000054"/>
</linearGradient>
<linearGradient id="paint29_linear_1_388" x1="725452" y1="698040" x2="-867340" y2="-637875" gradientUnits="userSpaceOnUse">
<stop stop-color="#C9F2EF"/>
<stop offset="1" stop-color="#000054"/>
</linearGradient>
<linearGradient id="paint30_linear_1_388" x1="524850" y1="724000" x2="-807078" y2="-544008" gradientUnits="userSpaceOnUse">
<stop stop-color="#C9F2EF"/>
<stop offset="1" stop-color="#000054"/>
</linearGradient>
<linearGradient id="paint31_linear_1_388" x1="521696" y1="773333" x2="-880109" y2="-508143" gradientUnits="userSpaceOnUse">
<stop stop-color="#C9F2EF"/>
<stop offset="1" stop-color="#000054"/>
</linearGradient>
<linearGradient id="paint32_linear_1_388" x1="486512" y1="771125" x2="-737519" y2="-627395" gradientUnits="userSpaceOnUse">
<stop stop-color="#C9F2EF"/>
<stop offset="1" stop-color="#000054"/>
</linearGradient>
<linearGradient id="paint33_linear_1_388" x1="536888" y1="828257" x2="-727722" y2="-616626" gradientUnits="userSpaceOnUse">
<stop stop-color="#C9F2EF"/>
<stop offset="1" stop-color="#000054"/>
</linearGradient>
<linearGradient id="paint34_linear_1_388" x1="557882" y1="941253" x2="-470716" y2="-632791" gradientUnits="userSpaceOnUse">
<stop stop-color="#C9F2EF"/>
<stop offset="1" stop-color="#000054"/>
</linearGradient>
<linearGradient id="paint35_linear_1_388" x1="834444" y1="1.04072e+06" x2="867800" y2="-33804.7" gradientUnits="userSpaceOnUse">
<stop stop-color="#C9F2EF"/>
<stop offset="1" stop-color="#000054"/>
</linearGradient>
<linearGradient id="paint36_linear_1_388" x1="-321246" y1="460953" x2="-1.19018e+06" y2="893152" gradientUnits="userSpaceOnUse">
<stop stop-color="#C9F2EF"/>
<stop offset="1" stop-color="#000054"/>
</linearGradient>
<linearGradient id="paint37_linear_1_388" x1="61029.6" y1="757911" x2="-1.62405e+06" y2="705602" gradientUnits="userSpaceOnUse">
<stop stop-color="#C9F2EF"/>
<stop offset="1" stop-color="#000054"/>
</linearGradient>
<linearGradient id="paint38_linear_1_388" x1="39153.8" y1="753383" x2="-1.79935e+06" y2="126480" gradientUnits="userSpaceOnUse">
<stop stop-color="#C9F2EF"/>
<stop offset="1" stop-color="#000054"/>
</linearGradient>
<linearGradient id="paint39_linear_1_388" x1="78249" y1="819023" x2="-1.80415e+06" y2="147688" gradientUnits="userSpaceOnUse">
<stop stop-color="#C9F2EF"/>
<stop offset="1" stop-color="#000054"/>
</linearGradient>
<linearGradient id="paint40_linear_1_388" x1="88231.4" y1="805259" x2="-1.81193e+06" y2="58075" gradientUnits="userSpaceOnUse">
<stop stop-color="#C9F2EF"/>
<stop offset="1" stop-color="#000054"/>
</linearGradient>
<linearGradient id="paint41_linear_1_388" x1="33590.4" y1="840057" x2="-1.84994e+06" y2="-38870.3" gradientUnits="userSpaceOnUse">
<stop stop-color="#C9F2EF"/>
<stop offset="1" stop-color="#000054"/>
</linearGradient>
<linearGradient id="paint42_linear_1_388" x1="27033.2" y1="828265" x2="-1.87006e+06" y2="-81633.7" gradientUnits="userSpaceOnUse">
<stop stop-color="#C9F2EF"/>
<stop offset="1" stop-color="#000054"/>
</linearGradient>
<linearGradient id="paint43_linear_1_388" x1="13675" y1="819564" x2="-1.89633e+06" y2="-116125" gradientUnits="userSpaceOnUse">
<stop stop-color="#C9F2EF"/>
<stop offset="1" stop-color="#000054"/>
</linearGradient>
<linearGradient id="paint44_linear_1_388" x1="-38970.6" y1="843242" x2="-1.93908e+06" y2="-158023" gradientUnits="userSpaceOnUse">
<stop stop-color="#C9F2EF"/>
<stop offset="1" stop-color="#000054"/>
</linearGradient>
<linearGradient id="paint45_linear_1_388" x1="-57153.9" y1="835287" x2="-1.97163e+06" y2="-181579" gradientUnits="userSpaceOnUse">
<stop stop-color="#C9F2EF"/>
<stop offset="1" stop-color="#000054"/>
</linearGradient>
<linearGradient id="paint46_linear_1_388" x1="-107801" y1="854560" x2="-2.01756e+06" y2="-208825" gradientUnits="userSpaceOnUse">
<stop stop-color="#C9F2EF"/>
<stop offset="1" stop-color="#000054"/>
</linearGradient>
<linearGradient id="paint47_linear_1_388" x1="-135700" y1="847105" x2="-2.02384e+06" y2="-206918" gradientUnits="userSpaceOnUse">
<stop stop-color="#C9F2EF"/>
<stop offset="1" stop-color="#000054"/>
</linearGradient>
<linearGradient id="paint48_linear_1_388" x1="-159240" y1="864401" x2="-2.07816e+06" y2="-176985" gradientUnits="userSpaceOnUse">
<stop stop-color="#C9F2EF"/>
<stop offset="1" stop-color="#000054"/>
</linearGradient>
<linearGradient id="paint49_linear_1_388" x1="-207635" y1="856943" x2="-2.11384e+06" y2="-243662" gradientUnits="userSpaceOnUse">
<stop stop-color="#C9F2EF"/>
<stop offset="1" stop-color="#000054"/>
</linearGradient>
<linearGradient id="paint50_linear_1_388" x1="-233272" y1="876188" x2="-2.18582e+06" y2="-221871" gradientUnits="userSpaceOnUse">
<stop stop-color="#C9F2EF"/>
<stop offset="1" stop-color="#000054"/>
</linearGradient>
<linearGradient id="paint51_linear_1_388" x1="-281216" y1="868656" x2="-2.22381e+06" y2="-280645" gradientUnits="userSpaceOnUse">
<stop stop-color="#C9F2EF"/>
<stop offset="1" stop-color="#000054"/>
</linearGradient>
<linearGradient id="paint52_linear_1_388" x1="-308413" y1="881835" x2="-2.27995e+06" y2="-256490" gradientUnits="userSpaceOnUse">
<stop stop-color="#C9F2EF"/>
<stop offset="1" stop-color="#000054"/>
</linearGradient>
<linearGradient id="paint53_linear_1_388" x1="-336197" y1="875396" x2="-2.32364e+06" y2="-272113" gradientUnits="userSpaceOnUse">
<stop stop-color="#C9F2EF"/>
<stop offset="1" stop-color="#000054"/>
</linearGradient>
<linearGradient id="paint54_linear_1_388" x1="-384352" y1="868794" x2="-2.36497e+06" y2="-322658" gradientUnits="userSpaceOnUse">
<stop stop-color="#C9F2EF"/>
<stop offset="1" stop-color="#000054"/>
</linearGradient>
<linearGradient id="paint55_linear_1_388" x1="-414077" y1="880656" x2="-2.42255e+06" y2="-301777" gradientUnits="userSpaceOnUse">
<stop stop-color="#C9F2EF"/>
<stop offset="1" stop-color="#000054"/>
</linearGradient>
<linearGradient id="paint56_linear_1_388" x1="-462318" y1="874312" x2="-2.46579e+06" y2="-347995" gradientUnits="userSpaceOnUse">
<stop stop-color="#C9F2EF"/>
<stop offset="1" stop-color="#000054"/>
</linearGradient>
<linearGradient id="paint57_linear_1_388" x1="-493293" y1="885281" x2="-2.52409e+06" y2="-329076" gradientUnits="userSpaceOnUse">
<stop stop-color="#C9F2EF"/>
<stop offset="1" stop-color="#000054"/>
</linearGradient>
<linearGradient id="paint58_linear_1_388" x1="-524586" y1="879653" x2="-2.57168e+06" y2="-342942" gradientUnits="userSpaceOnUse">
<stop stop-color="#C9F2EF"/>
<stop offset="1" stop-color="#000054"/>
</linearGradient>
<linearGradient id="paint59_linear_1_388" x1="-573902" y1="889351" x2="-2.62816e+06" y2="-354822" gradientUnits="userSpaceOnUse">
<stop stop-color="#C9F2EF"/>
<stop offset="1" stop-color="#000054"/>
</linearGradient>
<linearGradient id="paint60_linear_1_388" x1="-606319" y1="883804" x2="-2.67702e+06" y2="-368409" gradientUnits="userSpaceOnUse">
<stop stop-color="#C9F2EF"/>
<stop offset="1" stop-color="#000054"/>
</linearGradient>
<linearGradient id="paint61_linear_1_388" x1="-639922" y1="892241" x2="-2.74855e+06" y2="-361874" gradientUnits="userSpaceOnUse">
<stop stop-color="#C9F2EF"/>
<stop offset="1" stop-color="#000054"/>
</linearGradient>
<linearGradient id="paint62_linear_1_388" x1="-689432" y1="885935" x2="-2.79689e+06" y2="-401904" gradientUnits="userSpaceOnUse">
<stop stop-color="#C9F2EF"/>
<stop offset="1" stop-color="#000054"/>
</linearGradient>
<linearGradient id="paint63_linear_1_388" x1="-723619" y1="880275" x2="-2.84732e+06" y2="-415384" gradientUnits="userSpaceOnUse">
<stop stop-color="#C9F2EF"/>
<stop offset="1" stop-color="#000054"/>
</linearGradient>
<linearGradient id="paint64_linear_1_388" x1="-771667" y1="888423" x2="-2.88181e+06" y2="-412593" gradientUnits="userSpaceOnUse">
<stop stop-color="#C9F2EF"/>
<stop offset="1" stop-color="#000054"/>
</linearGradient>
<linearGradient id="paint65_linear_1_388" x1="-806538" y1="882810" x2="-2.9334e+06" y2="-426233" gradientUnits="userSpaceOnUse">
<stop stop-color="#C9F2EF"/>
<stop offset="1" stop-color="#000054"/>
</linearGradient>
<linearGradient id="paint66_linear_1_388" x1="-842472" y1="890883" x2="-2.99427e+06" y2="-414501" gradientUnits="userSpaceOnUse">
<stop stop-color="#C9F2EF"/>
<stop offset="1" stop-color="#000054"/>
</linearGradient>
<linearGradient id="paint67_linear_1_388" x1="-892947" y1="884793" x2="-3.04636e+06" y2="-450700" gradientUnits="userSpaceOnUse">
<stop stop-color="#C9F2EF"/>
<stop offset="1" stop-color="#000054"/>
</linearGradient>
<linearGradient id="paint68_linear_1_388" x1="-929850" y1="892431" x2="-3.10792e+06" y2="-439923" gradientUnits="userSpaceOnUse">
<stop stop-color="#C9F2EF"/>
<stop offset="1" stop-color="#000054"/>
</linearGradient>
<linearGradient id="paint69_linear_1_388" x1="-980881" y1="886334" x2="-3.16125e+06" y2="-474881" gradientUnits="userSpaceOnUse">
<stop stop-color="#C9F2EF"/>
<stop offset="1" stop-color="#000054"/>
</linearGradient>
<linearGradient id="paint70_linear_1_388" x1="-1.01875e+06" y1="893561" x2="-3.22362e+06" y2="-465056" gradientUnits="userSpaceOnUse">
<stop stop-color="#C9F2EF"/>
<stop offset="1" stop-color="#000054"/>
</linearGradient>
<linearGradient id="paint71_linear_1_388" x1="-1.05658e+06" y1="887889" x2="-3.27846e+06" y2="-479244" gradientUnits="userSpaceOnUse">
<stop stop-color="#C9F2EF"/>
<stop offset="1" stop-color="#000054"/>
</linearGradient>
<clipPath id="clip0_1_388">
<rect width="1440" height="406" fill="white"/>
</clipPath>
</defs>
</svg>
