<svg width="1440" height="236" viewBox="0 0 1440 236" fill="none" xmlns="http://www.w3.org/2000/svg">
<g clip-path="url(#clip0_1_286)">
<rect width="1440" height="236" fill="#070707"/>
<g style="mix-blend-mode:color-dodge" opacity="0.55">
<path style="mix-blend-mode:color-dodge" opacity="0.55" d="M167.358 -58.3197C167.358 -58.3197 144.498 117.905 300.909 93.849C457.32 69.7932 415.584 172.923 445.885 258.355C476.186 343.787 613.744 236.308 643.241 295.377C672.737 354.447 610.216 405.504 656.019 433.383" stroke="url(#paint0_linear_1_286)" stroke-width="1.05548" stroke-miterlimit="10"/>
<path style="mix-blend-mode:color-dodge" opacity="0.55" d="M657.409 433.208C612.249 405.721 673.69 352.048 642.136 294.029C610.582 236.009 475.364 340.431 444.785 254.856C414.206 169.281 453.399 69.1333 298.56 91.9126C143.72 114.692 167.143 -59.7848 166.33 -60.2591" stroke="url(#paint1_linear_1_286)" stroke-width="1.05548" stroke-miterlimit="10"/>
<path style="mix-blend-mode:color-dodge" opacity="0.55" d="M658.798 433.051C614.285 405.956 674.643 349.659 641.027 292.697C607.411 235.734 474.554 337.077 443.692 251.358C412.831 165.64 449.485 68.4745 296.218 89.9702C142.951 111.466 166.931 -61.2492 165.303 -62.1983" stroke="url(#paint2_linear_1_286)" stroke-width="1.05548" stroke-miterlimit="10"/>
<path style="mix-blend-mode:color-dodge" opacity="0.55" d="M660.184 432.883C616.316 406.183 675.596 347.263 639.926 291.355C604.257 235.448 473.741 333.725 442.592 247.859C411.443 161.993 445.56 67.8134 293.869 88.0212C142.177 108.229 166.717 -62.7147 164.275 -64.1382" stroke="url(#paint3_linear_1_286)" stroke-width="1.05548" stroke-miterlimit="10"/>
<path style="mix-blend-mode:color-dodge" opacity="0.55" d="M661.58 432.719C618.358 406.409 676.557 344.868 638.832 290.013C601.107 235.159 472.934 330.371 441.505 244.362C410.075 158.353 441.646 67.1522 291.533 86.0918C141.419 105.031 166.513 -64.1805 163.26 -66.0755" stroke="url(#paint4_linear_1_286)" stroke-width="1.05548" stroke-miterlimit="10"/>
<path style="mix-blend-mode:color-dodge" opacity="0.55" d="M662.967 432.551C620.388 406.633 677.51 342.46 637.725 288.671C597.94 234.883 472.12 327.014 440.405 240.866C408.689 154.717 437.722 66.4915 289.178 84.1519C140.634 101.812 166.294 -65.6463 162.225 -68.0161" stroke="url(#paint5_linear_1_286)" stroke-width="1.05548" stroke-miterlimit="10"/>
<path style="mix-blend-mode:color-dodge" opacity="0.55" d="M664.363 432.386C622.424 406.862 678.469 340.075 636.627 287.335C594.784 234.594 471.314 323.669 439.317 237.368C407.32 151.066 433.805 65.8309 286.832 82.2125C139.86 98.594 166.081 -67.1097 161.197 -69.9542" stroke="url(#paint6_linear_1_286)" stroke-width="1.05548" stroke-miterlimit="10"/>
<path style="mix-blend-mode:color-dodge" opacity="0.55" d="M665.743 432.217C624.456 407.086 679.415 337.678 635.517 285.987C591.619 234.297 470.494 320.313 438.214 233.87C405.934 147.427 429.882 65.1703 284.492 80.2745C139.101 95.3788 165.867 -68.5753 160.17 -71.8941" stroke="url(#paint7_linear_1_286)" stroke-width="1.05548" stroke-miterlimit="10"/>
<path style="mix-blend-mode:color-dodge" opacity="0.55" d="M667.141 432.051C626.496 407.313 680.377 335.282 634.42 284.648C588.463 234.015 469.691 316.959 437.126 230.372C404.56 143.785 425.969 64.5101 282.143 78.332C138.317 92.1538 165.662 -70.0426 159.149 -73.8338" stroke="url(#paint8_linear_1_286)" stroke-width="1.05548" stroke-miterlimit="10"/>
<path style="mix-blend-mode:color-dodge" opacity="0.55" d="M668.529 431.882C628.531 407.535 681.328 332.883 633.315 283.305C585.302 233.727 468.878 313.607 436.033 226.874C403.187 140.141 422.057 63.8493 279.795 76.3935C137.533 88.9377 165.448 -71.5145 158.12 -75.773" stroke="url(#paint9_linear_1_286)" stroke-width="1.05548" stroke-miterlimit="10"/>
<path style="mix-blend-mode:color-dodge" opacity="0.55" d="M669.915 431.715C630.562 407.763 682.281 330.488 632.214 281.965C582.148 233.443 468.065 310.254 434.932 223.379C401.798 136.504 418.127 63.1891 277.447 74.4537C136.767 85.7182 165.232 -72.9713 157.092 -77.7112" stroke="url(#paint10_linear_1_286)" stroke-width="1.05548" stroke-miterlimit="10"/>
<path style="mix-blend-mode:color-dodge" opacity="0.55" d="M671.309 431.551C632.603 407.989 683.241 328.093 631.111 280.622C578.981 233.151 467.257 306.901 433.843 219.882C400.429 132.864 414.211 62.5279 275.105 72.5164C135.999 82.5049 165.024 -74.4373 156.071 -79.6492" stroke="url(#paint11_linear_1_286)" stroke-width="1.05548" stroke-miterlimit="10"/>
<path style="mix-blend-mode:color-dodge" opacity="0.55" d="M672.7 431.384C634.637 408.214 684.194 325.694 630.011 279.281C575.827 232.868 466.448 303.539 432.749 216.376C399.049 129.214 410.292 61.8677 272.76 70.5754C135.229 79.283 164.809 -75.9004 155.043 -81.589" stroke="url(#paint12_linear_1_286)" stroke-width="1.05548" stroke-miterlimit="10"/>
<path style="mix-blend-mode:color-dodge" opacity="0.55" d="M674.086 431.215C636.676 408.441 685.147 323.298 628.905 277.939C572.663 232.581 465.634 300.194 431.65 212.885C397.665 125.576 406.369 61.2071 270.412 68.6363C134.455 76.0655 164.594 -77.3682 154.015 -83.5288" stroke="url(#paint13_linear_1_286)" stroke-width="1.05548" stroke-miterlimit="10"/>
<path style="mix-blend-mode:color-dodge" opacity="0.55" d="M675.478 431.048C638.706 408.665 686.104 320.902 627.814 276.599C569.523 232.297 464.833 296.843 430.569 209.386C396.305 121.928 402.454 60.5449 268.066 66.6948C133.678 72.8448 164.384 -78.8332 152.994 -85.4678" stroke="url(#paint14_linear_1_286)" stroke-width="1.05548" stroke-miterlimit="10"/>
<path style="mix-blend-mode:color-dodge" opacity="0.55" d="M676.86 430.88C640.731 408.889 687.049 318.502 626.692 275.253C566.335 232.005 464.009 293.487 429.458 205.898C394.907 118.308 398.529 59.8919 265.705 64.7619C132.881 69.6318 164.156 -80.2926 151.938 -87.4039" stroke="url(#paint15_linear_1_286)" stroke-width="1.05548" stroke-miterlimit="10"/>
<path style="mix-blend-mode:color-dodge" opacity="0.55" d="M678.257 430.714C642.776 409.118 688.013 316.108 625.598 273.914C563.182 231.72 463.202 290.137 428.372 202.394C393.542 114.652 394.604 59.222 263.375 62.8167C132.145 66.4113 163.959 -81.7618 150.938 -89.3458" stroke="url(#paint16_linear_1_286)" stroke-width="1.05548" stroke-miterlimit="10"/>
<path style="mix-blend-mode:color-dodge" opacity="0.55" d="M679.645 430.546C644.808 409.342 688.966 313.712 624.492 272.572C560.018 231.433 462.39 286.782 427.272 198.895C392.154 111.008 390.692 58.5629 261.024 60.8771C131.356 63.1913 163.741 -83.2277 149.91 -91.2857" stroke="url(#paint17_linear_1_286)" stroke-width="1.05548" stroke-miterlimit="10"/>
<path style="mix-blend-mode:color-dodge" opacity="0.55" d="M681.033 430.381C646.842 409.568 689.917 311.313 623.387 271.231C556.856 231.149 461.574 283.43 426.174 195.397C390.774 107.364 386.769 57.9032 258.679 58.9346C130.589 59.9661 163.529 -84.6942 148.882 -93.2246" stroke="url(#paint18_linear_1_286)" stroke-width="1.05548" stroke-miterlimit="10"/>
<path style="mix-blend-mode:color-dodge" opacity="0.55" d="M682.426 430.214C648.878 409.794 690.875 308.917 622.286 269.888C553.697 230.858 460.766 280.075 425.083 191.899C389.4 103.722 382.854 57.241 256.335 56.9984C129.816 56.7557 163.319 -86.1593 147.86 -95.1588" stroke="url(#paint19_linear_1_286)" stroke-width="1.05548" stroke-miterlimit="10"/>
<path style="mix-blend-mode:color-dodge" opacity="0.55" d="M683.818 430.034C650.918 410.008 691.834 306.51 621.189 268.535C550.545 230.56 459.958 276.724 423.989 188.403C388.021 100.082 378.936 56.5813 253.99 55.0673C129.044 53.5533 163.107 -87.6144 146.831 -97.0938" stroke="url(#paint20_linear_1_286)" stroke-width="1.05548" stroke-miterlimit="10"/>
<path style="mix-blend-mode:color-dodge" opacity="0.55" d="M685.205 429.878C652.946 410.243 692.784 304.122 620.083 267.205C547.381 230.288 459.143 273.369 422.892 184.904C386.641 96.4392 375.027 55.9202 251.644 53.1186C128.261 50.3171 162.894 -89.0894 145.805 -99.0432" stroke="url(#paint21_linear_1_286)" stroke-width="1.05548" stroke-miterlimit="10"/>
<path style="mix-blend-mode:color-dodge" opacity="0.55" d="M686.595 429.712C654.982 410.47 693.739 301.728 618.979 265.865C544.22 230.003 458.333 270.016 421.799 181.405C385.265 92.7942 371.094 55.2595 249.296 51.1764C127.498 47.0932 162.682 -90.5576 144.778 -100.986" stroke="url(#paint22_linear_1_286)" stroke-width="1.05548" stroke-miterlimit="10"/>
<path style="mix-blend-mode:color-dodge" opacity="0.55" d="M687.983 429.544C657.018 410.697 694.694 299.331 617.876 264.519C541.059 229.706 457.522 266.661 420.708 177.909C383.893 89.1574 367.181 54.6001 246.954 49.2405C126.728 43.8809 162.474 -92.0199 143.756 -102.92" stroke="url(#paint23_linear_1_286)" stroke-width="1.05548" stroke-miterlimit="10"/>
<path style="mix-blend-mode:color-dodge" opacity="0.55" d="M689.377 429.378C659.055 410.923 695.655 296.923 616.776 263.181C537.897 229.44 456.705 263.309 419.613 174.412C382.521 85.5148 363.259 53.9384 244.62 47.3023C125.98 40.6662 162.272 -93.4821 142.741 -104.857" stroke="url(#paint24_linear_1_286)" stroke-width="1.05548" stroke-miterlimit="10"/>
<path style="mix-blend-mode:color-dodge" opacity="0.55" d="M690.766 429.213C661.091 411.149 696.605 294.538 615.672 261.839C534.74 229.141 455.902 259.958 418.522 170.916C381.142 81.8745 359.341 53.2659 242.261 45.3613C125.181 37.4566 162.047 -94.9495 141.7 -106.799" stroke="url(#paint25_linear_1_286)" stroke-width="1.05548" stroke-miterlimit="10"/>
<path style="mix-blend-mode:color-dodge" opacity="0.55" d="M692.152 429.044C663.122 411.373 697.558 292.141 614.567 260.497C531.575 228.854 455.089 256.603 417.421 167.417C379.754 78.2306 355.417 52.6147 239.913 43.4198C124.409 34.2248 161.832 -96.415 140.672 -108.739" stroke="url(#paint26_linear_1_286)" stroke-width="1.05548" stroke-miterlimit="10"/>
<path style="mix-blend-mode:color-dodge" opacity="0.55" d="M693.54 428.878C665.156 411.599 698.511 289.746 613.462 259.155C528.412 228.564 454.276 253.252 416.323 163.919C378.37 74.5867 351.497 51.9561 237.565 41.4823C123.632 31.0085 161.616 -97.8741 139.644 -110.677" stroke="url(#paint27_linear_1_286)" stroke-width="1.05548" stroke-miterlimit="10"/>
<path style="mix-blend-mode:color-dodge" opacity="0.55" d="M694.939 428.711C667.197 411.827 699.472 287.348 612.369 257.815C525.265 228.282 453.464 249.897 415.229 160.416C376.994 70.9349 347.569 51.2946 235.219 39.5412C122.87 27.7877 161.405 -99.3464 138.616 -112.617" stroke="url(#paint28_linear_1_286)" stroke-width="1.05548" stroke-miterlimit="10"/>
<path style="mix-blend-mode:color-dodge" opacity="0.55" d="M696.326 428.543C669.231 412.051 700.424 284.951 611.262 256.473C522.1 227.994 452.657 246.546 414.152 156.925C375.647 67.3044 343.661 50.6336 232.875 37.6025C122.089 24.5714 161.197 -100.811 137.595 -114.556" stroke="url(#paint29_linear_1_286)" stroke-width="1.05548" stroke-miterlimit="10"/>
<path style="mix-blend-mode:color-dodge" opacity="0.55" d="M697.708 428.376C671.259 412.276 701.374 282.556 610.154 255.129C518.933 227.703 451.841 243.192 413.042 153.428C374.244 63.6646 339.736 49.9667 230.514 35.6603C121.291 21.3539 160.968 -102.277 136.573 -116.493" stroke="url(#paint30_linear_1_286)" stroke-width="1.05548" stroke-miterlimit="10"/>
<path style="mix-blend-mode:color-dodge" opacity="0.55" d="M699.101 428.21C673.295 412.503 702.33 280.157 609.053 253.788C515.777 227.419 451.036 239.842 411.947 149.929C372.859 60.0157 335.821 49.3113 228.181 33.7229C120.541 18.1345 160.767 -103.744 135.546 -118.434" stroke="url(#paint31_linear_1_286)" stroke-width="1.05548" stroke-miterlimit="10"/>
<path style="mix-blend-mode:color-dodge" opacity="0.55" d="M700.491 428.043C675.331 412.728 703.285 277.761 607.95 252.444C512.615 227.127 450.221 236.483 410.852 146.428C371.482 56.3741 331.913 48.651 225.835 31.7822C119.756 14.9134 160.554 -105.208 134.504 -120.375" stroke="url(#paint32_linear_1_286)" stroke-width="1.05548" stroke-miterlimit="10"/>
<path style="mix-blend-mode:color-dodge" opacity="0.55" d="M701.876 427.876C677.361 412.953 704.237 275.366 606.843 251.106C509.449 226.846 449.401 233.133 409.752 142.933C370.103 52.7331 327.977 47.9921 223.486 29.8444C118.994 11.6968 160.348 -106.671 133.483 -122.313" stroke="url(#paint33_linear_1_286)" stroke-width="1.05548" stroke-miterlimit="10"/>
<path style="mix-blend-mode:color-dodge" opacity="0.55" d="M703.271 427.709C679.402 413.181 705.194 272.967 605.745 249.763C506.295 226.558 448.6 229.785 408.664 139.435C368.727 49.0861 324.061 47.3299 221.145 27.9038C118.228 8.47768 160.13 -108.137 132.462 -124.252" stroke="url(#paint34_linear_1_286)" stroke-width="1.05548" stroke-miterlimit="10"/>
<path style="mix-blend-mode:color-dodge" opacity="0.55" d="M704.662 427.541C681.436 413.405 706.15 270.571 604.642 248.421C503.133 226.271 447.788 226.425 407.568 135.939C367.348 45.4532 320.144 46.6676 218.799 25.965C117.454 5.26242 159.918 -109.602 131.435 -126.196" stroke="url(#paint35_linear_1_286)" stroke-width="1.05548" stroke-miterlimit="10"/>
<path style="mix-blend-mode:color-dodge" opacity="0.55" d="M706.047 427.374C683.47 413.631 707.103 268.176 603.538 247.088C499.972 226.001 446.974 223.081 406.471 132.449C365.969 41.8173 316.222 46.0087 216.451 24.0253C116.68 2.04185 159.703 -111.069 130.406 -128.13" stroke="url(#paint36_linear_1_286)" stroke-width="1.05548" stroke-miterlimit="10"/>
<path style="mix-blend-mode:color-dodge" opacity="0.55" d="M707.433 427.206C685.512 413.857 708.051 265.776 602.431 245.739C496.81 225.702 446.163 219.719 405.38 128.944C364.597 38.1685 312.299 45.3479 214.105 22.0864C115.911 -1.17504 159.49 -112.546 129.378 -130.07" stroke="url(#paint37_linear_1_286)" stroke-width="1.05548" stroke-miterlimit="10"/>
<path style="mix-blend-mode:color-dodge" opacity="0.55" d="M708.833 427.043C687.544 414.089 709.016 263.382 601.337 244.397C493.658 225.412 445.359 216.369 404.286 125.444C363.213 34.519 308.386 44.6895 211.762 20.1464C115.137 -4.39664 159.282 -113.997 128.356 -132.007" stroke="url(#paint38_linear_1_286)" stroke-width="1.05548" stroke-miterlimit="10"/>
<path style="mix-blend-mode:color-dodge" opacity="0.55" d="M710.221 426.875C689.576 414.308 709.969 260.986 600.224 243.054C490.479 225.123 444.544 213.014 403.191 121.948C361.837 30.8818 304.459 44.0257 209.413 18.2073C114.368 -7.61105 159.068 -115.463 127.329 -133.947" stroke="url(#paint39_linear_1_286)" stroke-width="1.05548" stroke-miterlimit="10"/>
<path style="mix-blend-mode:color-dodge" opacity="0.55" d="M711.607 426.707C691.608 414.532 710.92 258.586 599.127 241.706C487.334 224.826 443.731 209.661 402.092 118.451C360.453 27.241 300.538 43.3677 207.066 16.2657C113.593 -10.8362 158.853 -116.931 126.301 -135.887" stroke="url(#paint40_linear_1_286)" stroke-width="1.05548" stroke-miterlimit="10"/>
<path style="mix-blend-mode:color-dodge" opacity="0.55" d="M712.998 426.539C693.642 414.771 711.876 256.19 598.023 240.372C484.17 224.554 442.923 206.295 401 114.953C359.076 23.611 296.624 42.7059 204.72 14.3295C112.815 -14.0469 158.64 -118.393 125.272 -137.825" stroke="url(#paint41_linear_1_286)" stroke-width="1.05548" stroke-miterlimit="10"/>
<path style="mix-blend-mode:color-dodge" opacity="0.55" d="M714.392 426.374C695.682 414.986 712.825 253.795 596.925 239.03C481.024 224.266 442.112 202.957 399.908 111.457C357.704 19.9566 292.708 42.0454 202.379 12.3882C112.049 -17.2691 158.433 -119.859 124.251 -139.764" stroke="url(#paint42_linear_1_286)" stroke-width="1.05548" stroke-miterlimit="10"/>
<path style="mix-blend-mode:color-dodge" opacity="0.55" d="M715.778 426.205C697.716 415.21 713.788 251.4 595.819 237.688C477.85 223.977 441.3 199.602 398.81 107.958C356.321 16.3134 288.786 41.3847 200.032 10.4395C111.278 -20.5057 158.224 -121.333 123.225 -141.714" stroke="url(#paint43_linear_1_286)" stroke-width="1.05548" stroke-miterlimit="10"/>
<path style="mix-blend-mode:color-dodge" opacity="0.55" d="M717.166 426.037C699.748 415.437 714.739 249 594.716 236.347C474.693 223.693 440.487 196.249 397.72 104.458C354.954 12.6655 284.866 40.7221 197.68 8.50713C110.494 -23.7078 158.003 -122.79 122.195 -143.639" stroke="url(#paint44_linear_1_286)" stroke-width="1.05548" stroke-miterlimit="10"/>
<path style="mix-blend-mode:color-dodge" opacity="0.55" d="M718.557 425.873C701.784 415.663 715.695 246.605 593.606 235.005C471.516 223.405 439.677 192.896 396.619 100.964C353.562 9.03165 280.945 40.0699 195.334 6.56939C109.724 -26.9311 157.791 -124.256 121.167 -145.583" stroke="url(#paint45_linear_1_286)" stroke-width="1.05548" stroke-miterlimit="10"/>
<path style="mix-blend-mode:color-dodge" opacity="0.55" d="M719.952 425.704C703.821 415.897 716.667 244.212 592.514 233.664C468.362 223.115 438.87 189.533 395.531 97.4644C352.192 5.39594 277.031 39.4012 192.992 4.63413C108.954 -30.133 157.586 -125.725 120.146 -147.521" stroke="url(#paint46_linear_1_286)" stroke-width="1.05548" stroke-miterlimit="10"/>
<path style="mix-blend-mode:color-dodge" opacity="0.55" d="M721.337 425.539C705.849 416.115 717.606 241.812 591.409 232.323C465.213 222.834 438.056 186.191 394.433 93.9688C350.81 1.74669 273.116 38.7427 190.645 2.69125C108.174 -33.3602 157.367 -127.182 119.118 -149.46" stroke="url(#paint47_linear_1_286)" stroke-width="1.05548" stroke-miterlimit="10"/>
<path style="mix-blend-mode:color-dodge" opacity="0.55" d="M722.725 425.371C707.887 416.339 718.558 239.415 590.303 230.978C462.048 222.541 437.242 182.836 393.334 90.4695C349.425 -1.89676 269.188 38.081 188.296 0.749454C107.405 -36.5821 157.152 -128.651 118.098 -151.409" stroke="url(#paint48_linear_1_286)" stroke-width="1.05548" stroke-miterlimit="10"/>
<path style="mix-blend-mode:color-dodge" opacity="0.55" d="M724.122 425.205C709.927 416.565 719.519 237.02 589.206 229.64C458.892 222.261 436.435 179.484 392.247 86.9725C348.059 -5.53945 265.274 37.4195 185.957 -1.18808C106.639 -39.7957 156.944 -130.117 117.062 -153.34" stroke="url(#paint49_linear_1_286)" stroke-width="1.05548" stroke-miterlimit="10"/>
<path style="mix-blend-mode:color-dodge" opacity="0.55" d="M725.517 425.038C711.971 416.793 720.481 234.622 588.111 228.298C455.741 221.973 435.623 176.13 391.149 83.4758C346.675 -9.17793 261.352 36.7588 183.604 -3.13041C105.856 -43.0196 156.724 -131.584 116.034 -155.28" stroke="url(#paint50_linear_1_286)" stroke-width="1.05548" stroke-miterlimit="10"/>
<path style="mix-blend-mode:color-dodge" opacity="0.55" d="M726.899 424.87C713.986 417.016 721.428 232.224 586.999 226.956C452.57 221.689 434.816 172.78 390.062 79.9802C345.308 -12.8193 257.438 36.1011 181.271 -5.07526C105.104 -46.2516 156.518 -133.046 115.013 -157.217" stroke="url(#paint51_linear_1_286)" stroke-width="1.05548" stroke-miterlimit="10"/>
<path style="mix-blend-mode:color-dodge" opacity="0.55" d="M728.286 424.704C716.029 417.241 722.379 229.829 585.895 225.614C449.41 221.399 434.001 169.419 388.958 76.4796C343.915 -16.4596 253.513 35.4297 178.908 -7.01003C104.302 -49.4498 156.297 -134.513 113.979 -159.158" stroke="url(#paint52_linear_1_286)" stroke-width="1.05548" stroke-miterlimit="10"/>
<path style="mix-blend-mode:color-dodge" opacity="0.55" d="M729.672 424.546C718.061 417.478 723.33 227.44 584.792 224.285C446.253 221.13 433.186 166.071 387.862 72.9813C342.538 -20.1088 249.592 34.7769 176.566 -8.94768C103.541 -52.6722 156.089 -135.977 112.958 -161.097" stroke="url(#paint53_linear_1_286)" stroke-width="1.05548" stroke-miterlimit="10"/>
<path style="mix-blend-mode:color-dodge" opacity="0.55" d="M731.061 424.369C720.101 417.695 724.284 225.035 583.685 222.93C443.086 220.824 432.373 162.718 386.766 69.4838C341.159 -23.7501 245.669 34.1149 174.219 -10.8905C102.768 -55.8959 155.874 -137.446 111.928 -163.031" stroke="url(#paint54_linear_1_286)" stroke-width="1.05548" stroke-miterlimit="10"/>
<path style="mix-blend-mode:color-dodge" opacity="0.55" d="M732.459 424.203C722.137 417.919 725.249 222.64 582.589 221.589C439.929 220.538 431.577 159.368 385.677 65.9884C339.777 -27.3908 241.756 33.4555 171.879 -12.826C102.003 -59.1074 155.668 -138.906 110.908 -164.974" stroke="url(#paint55_linear_1_286)" stroke-width="1.05548" stroke-miterlimit="10"/>
<path style="mix-blend-mode:color-dodge" opacity="0.55" d="M733.843 424.036C724.163 418.151 726.193 220.241 581.479 220.248C436.765 220.255 430.753 156.013 384.575 62.4906C338.397 -31.0315 237.828 32.8031 169.525 -14.7667C101.221 -62.3365 155.454 -140.372 109.873 -166.911" stroke="url(#paint56_linear_1_286)" stroke-width="1.05548" stroke-miterlimit="10"/>
<path style="mix-blend-mode:color-dodge" opacity="0.55" d="M735.236 423.868C726.205 418.372 727.154 217.845 580.392 218.906C433.63 219.967 429.954 152.672 383.497 58.9942C337.041 -34.6832 233.917 32.1339 167.197 -16.7033C100.476 -65.5404 155.252 -141.836 108.865 -168.848" stroke="url(#paint57_linear_1_286)" stroke-width="1.05548" stroke-miterlimit="10"/>
<path style="mix-blend-mode:color-dodge" opacity="0.55" d="M736.629 423.701C728.241 418.596 728.112 215.449 579.281 217.563C430.45 219.677 429.137 149.306 382.402 55.4956C335.666 -38.3153 230.007 31.4752 164.851 -18.6444C99.6956 -68.764 155.04 -143.304 107.837 -170.788" stroke="url(#paint58_linear_1_286)" stroke-width="1.05548" stroke-miterlimit="10"/>
<path style="mix-blend-mode:color-dodge" opacity="0.55" d="M738.015 423.536C730.273 418.824 729.06 213.053 578.173 216.222C427.286 219.391 428.323 145.947 381.296 51.9988C334.269 -41.9499 226.075 30.8115 162.501 -20.5829C98.9263 -71.9773 154.824 -144.763 106.809 -172.727" stroke="url(#paint59_linear_1_286)" stroke-width="1.05548" stroke-miterlimit="10"/>
<path style="mix-blend-mode:color-dodge" opacity="0.55" d="M739.404 423.368C732.308 419.048 730.017 210.655 577.074 214.881C424.13 219.108 427.518 142.601 380.202 48.4982C332.886 -45.605 222.159 30.1496 160.145 -22.5157C98.1304 -75.1811 154.602 -146.225 105.773 -174.658" stroke="url(#paint60_linear_1_286)" stroke-width="1.05548" stroke-miterlimit="10"/>
<path style="mix-blend-mode:color-dodge" opacity="0.55" d="M740.795 423.201C734.344 419.278 730.972 208.259 575.971 213.538C420.97 218.816 426.701 139.246 379.109 45.0024C331.517 -49.2409 218.238 29.4918 157.8 -24.4639C97.3624 -78.4196 154.391 -147.699 104.747 -176.608" stroke="url(#paint61_linear_1_286)" stroke-width="1.05548" stroke-miterlimit="10"/>
<path style="mix-blend-mode:color-dodge" opacity="0.55" d="M742.183 423.034C736.375 419.501 731.925 205.864 574.865 212.197C417.805 218.531 425.887 135.895 378.011 41.5051C330.134 -52.8847 214.316 28.8305 155.453 -26.406C96.5894 -81.6425 154.177 -149.168 103.719 -178.55" stroke="url(#paint62_linear_1_286)" stroke-width="1.05548" stroke-miterlimit="10"/>
<path style="mix-blend-mode:color-dodge" opacity="0.55" d="M743.575 422.867C738.416 419.727 732.883 203.465 573.767 210.856C414.65 218.247 425.081 132.543 376.92 38.007C328.758 -56.5294 210.4 28.1706 153.111 -28.342C95.8215 -84.8546 153.969 -150.63 102.697 -180.485" stroke="url(#paint63_linear_1_286)" stroke-width="1.05548" stroke-miterlimit="10"/>
<path style="mix-blend-mode:color-dodge" opacity="0.55" d="M744.966 422.699C740.45 419.951 733.831 201.068 572.664 209.512C411.497 217.957 424.269 129.186 375.839 34.5107C327.41 -60.1647 206.483 27.5083 150.765 -30.2808C95.0472 -88.0698 153.756 -152.095 101.669 -182.425" stroke="url(#paint64_linear_1_286)" stroke-width="1.05548" stroke-miterlimit="10"/>
<path style="mix-blend-mode:color-dodge" opacity="0.55" d="M746.354 422.53C742.482 420.172 734.792 198.67 571.559 208.167C408.325 217.665 423.456 125.835 374.736 31.0151C326.015 -63.8052 202.568 26.8506 148.425 -32.224C94.2826 -91.2987 153.549 -153.563 100.662 -184.364" stroke="url(#paint65_linear_1_286)" stroke-width="1.05548" stroke-miterlimit="10"/>
<path style="mix-blend-mode:color-dodge" opacity="0.55" d="M747.745 422.367C744.518 420.405 735.745 196.275 570.455 206.83C405.166 217.385 422.646 122.483 373.636 27.515C324.625 -67.4527 198.641 26.1884 146.072 -34.1599C93.5027 -94.5083 153.329 -155.025 99.6136 -186.303" stroke="url(#paint66_linear_1_286)" stroke-width="1.05548" stroke-miterlimit="10"/>
<path style="mix-blend-mode:color-dodge" opacity="0.55" d="M749.131 422.199C746.555 420.616 736.699 193.879 569.351 205.489C402.003 217.099 421.842 119.129 372.539 24.0164C323.235 -71.0965 194.72 25.5258 143.712 -36.103C92.7046 -97.7317 153.093 -156.496 98.5785 -188.242" stroke="url(#paint67_linear_1_286)" stroke-width="1.05548" stroke-miterlimit="10"/>
<path style="mix-blend-mode:color-dodge" opacity="0.55" d="M750.525 422.033C748.591 420.854 737.657 191.491 568.254 204.149C398.85 216.807 421.025 115.777 371.446 20.5195C321.868 -74.7384 190.803 24.8672 141.38 -38.0384C91.9568 -100.944 152.904 -157.956 97.5643 -190.18" stroke="url(#paint68_linear_1_286)" stroke-width="1.05548" stroke-miterlimit="10"/>
<path style="mix-blend-mode:color-dodge" opacity="0.55" d="M751.914 421.865C750.622 421.08 738.609 189.085 567.148 202.805C395.688 216.525 420.222 112.424 370.351 17.0232C320.479 -78.3777 186.883 24.2045 139.032 -39.98C91.1807 -104.164 152.699 -159.42 96.5363 -192.12" stroke="url(#paint69_linear_1_286)" stroke-width="1.05548" stroke-miterlimit="10"/>
<path style="mix-blend-mode:color-dodge" opacity="0.55" d="M753.299 421.697C752.656 421.305 739.562 186.688 566.043 201.461C392.525 216.233 419.4 109.068 369.253 13.5219C319.107 -82.0239 182.974 23.5435 136.684 -41.9214C90.3944 -107.386 152.475 -160.89 95.5088 -194.063" stroke="url(#paint70_linear_1_286)" stroke-width="1.05548" stroke-miterlimit="10"/>
<path style="mix-blend-mode:color-dodge" opacity="0.55" d="M754.69 421.529C754.69 421.529 740.518 184.29 564.94 200.122C389.362 215.953 418.587 105.715 368.16 10.0261C317.733 -85.663 179.041 22.8836 134.339 -43.8601C89.6361 -110.604 152.261 -162.348 94.4805 -196" stroke="url(#paint71_linear_1_286)" stroke-width="1.05548" stroke-miterlimit="10"/>
</g>
</g>
<defs>
<linearGradient id="paint0_linear_1_286" x1="-1.95174e+06" y1="-230852" x2="653974" y2="175454" gradientUnits="userSpaceOnUse">
<stop stop-color="#C9F2EF"/>
<stop offset="1" stop-color="#000054"/>
</linearGradient>
<linearGradient id="paint1_linear_1_286" x1="-950982" y1="-637740" x2="184060" y2="375373" gradientUnits="userSpaceOnUse">
<stop stop-color="#C9F2EF"/>
<stop offset="1" stop-color="#000054"/>
</linearGradient>
<linearGradient id="paint2_linear_1_286" x1="-966727" y1="-636581" x2="186929" y2="377773" gradientUnits="userSpaceOnUse">
<stop stop-color="#C9F2EF"/>
<stop offset="1" stop-color="#000054"/>
</linearGradient>
<linearGradient id="paint3_linear_1_286" x1="-986601" y1="-614603" x2="164253" y2="400944" gradientUnits="userSpaceOnUse">
<stop stop-color="#C9F2EF"/>
<stop offset="1" stop-color="#000054"/>
</linearGradient>
<linearGradient id="paint4_linear_1_286" x1="-1.00303e+06" y1="-614085" x2="149233" y2="418875" gradientUnits="userSpaceOnUse">
<stop stop-color="#C9F2EF"/>
<stop offset="1" stop-color="#000054"/>
</linearGradient>
<linearGradient id="paint5_linear_1_286" x1="-1.01778e+06" y1="-612137" x2="153528" y2="420915" gradientUnits="userSpaceOnUse">
<stop stop-color="#C9F2EF"/>
<stop offset="1" stop-color="#000054"/>
</linearGradient>
<linearGradient id="paint6_linear_1_286" x1="-1.0336e+06" y1="-612411" x2="138468" y2="438896" gradientUnits="userSpaceOnUse">
<stop stop-color="#C9F2EF"/>
<stop offset="1" stop-color="#000054"/>
</linearGradient>
<linearGradient id="paint7_linear_1_286" x1="-1.04944e+06" y1="-611179" x2="130056" y2="451705" gradientUnits="userSpaceOnUse">
<stop stop-color="#C9F2EF"/>
<stop offset="1" stop-color="#000054"/>
</linearGradient>
<linearGradient id="paint8_linear_1_286" x1="-1.0621e+06" y1="-612140" x2="129685" y2="457546" gradientUnits="userSpaceOnUse">
<stop stop-color="#C9F2EF"/>
<stop offset="1" stop-color="#000054"/>
</linearGradient>
<linearGradient id="paint9_linear_1_286" x1="-1.07743e+06" y1="-611143" x2="121530" y2="470397" gradientUnits="userSpaceOnUse">
<stop stop-color="#C9F2EF"/>
<stop offset="1" stop-color="#000054"/>
</linearGradient>
<linearGradient id="paint10_linear_1_286" x1="-1.08913e+06" y1="-612472" x2="122245" y2="475609" gradientUnits="userSpaceOnUse">
<stop stop-color="#C9F2EF"/>
<stop offset="1" stop-color="#000054"/>
</linearGradient>
<linearGradient id="paint11_linear_1_286" x1="-1.10364e+06" y1="-611937" x2="114564" y2="488275" gradientUnits="userSpaceOnUse">
<stop stop-color="#C9F2EF"/>
<stop offset="1" stop-color="#000054"/>
</linearGradient>
<linearGradient id="paint12_linear_1_286" x1="-1.117e+06" y1="-615542" x2="98215.8" y2="506628" gradientUnits="userSpaceOnUse">
<stop stop-color="#C9F2EF"/>
<stop offset="1" stop-color="#000054"/>
</linearGradient>
<linearGradient id="paint13_linear_1_286" x1="-1.16942e+06" y1="-622583" x2="104235" y2="529349" gradientUnits="userSpaceOnUse">
<stop stop-color="#C9F2EF"/>
<stop offset="1" stop-color="#000054"/>
</linearGradient>
<linearGradient id="paint14_linear_1_286" x1="-1.1851e+06" y1="-624896" x2="97690.9" y2="542781" gradientUnits="userSpaceOnUse">
<stop stop-color="#C9F2EF"/>
<stop offset="1" stop-color="#000054"/>
</linearGradient>
<linearGradient id="paint15_linear_1_286" x1="-1.2016e+06" y1="-583873" x2="70624.9" y2="568733" gradientUnits="userSpaceOnUse">
<stop stop-color="#C9F2EF"/>
<stop offset="1" stop-color="#000054"/>
</linearGradient>
<linearGradient id="paint16_linear_1_286" x1="-1.21592e+06" y1="-584259" x2="62907.5" y2="582678" gradientUnits="userSpaceOnUse">
<stop stop-color="#C9F2EF"/>
<stop offset="1" stop-color="#000054"/>
</linearGradient>
<linearGradient id="paint17_linear_1_286" x1="-1.2282e+06" y1="-592083" x2="43857.2" y2="602436" gradientUnits="userSpaceOnUse">
<stop stop-color="#C9F2EF"/>
<stop offset="1" stop-color="#000054"/>
</linearGradient>
<linearGradient id="paint18_linear_1_286" x1="-1.23229e+06" y1="-594971" x2="66880.4" y2="594128" gradientUnits="userSpaceOnUse">
<stop stop-color="#C9F2EF"/>
<stop offset="1" stop-color="#000054"/>
</linearGradient>
<linearGradient id="paint19_linear_1_286" x1="-1.2393e+06" y1="-609316" x2="50947.2" y2="610582" gradientUnits="userSpaceOnUse">
<stop stop-color="#C9F2EF"/>
<stop offset="1" stop-color="#000054"/>
</linearGradient>
<linearGradient id="paint20_linear_1_286" x1="-1.23414e+06" y1="-619654" x2="84943.8" y2="592318" gradientUnits="userSpaceOnUse">
<stop stop-color="#C9F2EF"/>
<stop offset="1" stop-color="#000054"/>
</linearGradient>
<linearGradient id="paint21_linear_1_286" x1="-1.22899e+06" y1="-648057" x2="78789" y2="599310" gradientUnits="userSpaceOnUse">
<stop stop-color="#C9F2EF"/>
<stop offset="1" stop-color="#000054"/>
</linearGradient>
<linearGradient id="paint22_linear_1_286" x1="-1.21305e+06" y1="-680736" x2="98604.3" y2="587026" gradientUnits="userSpaceOnUse">
<stop stop-color="#C9F2EF"/>
<stop offset="1" stop-color="#000054"/>
</linearGradient>
<linearGradient id="paint23_linear_1_286" x1="-1.15912e+06" y1="-737175" x2="182676" y2="517241" gradientUnits="userSpaceOnUse">
<stop stop-color="#C9F2EF"/>
<stop offset="1" stop-color="#000054"/>
</linearGradient>
<linearGradient id="paint24_linear_1_286" x1="-1.05362e+06" y1="-873749" x2="276223" y2="430856" gradientUnits="userSpaceOnUse">
<stop stop-color="#C9F2EF"/>
<stop offset="1" stop-color="#000054"/>
</linearGradient>
<linearGradient id="paint25_linear_1_286" x1="-721536" y1="-1.23684e+06" x2="622197" y2="106414" gradientUnits="userSpaceOnUse">
<stop stop-color="#C9F2EF"/>
<stop offset="1" stop-color="#000054"/>
</linearGradient>
<linearGradient id="paint26_linear_1_286" x1="5.13904e+06" y1="-3.15509e+06" x2="3.77902e+06" y2="-4.5181e+06" gradientUnits="userSpaceOnUse">
<stop stop-color="#C9F2EF"/>
<stop offset="1" stop-color="#000054"/>
</linearGradient>
<linearGradient id="paint27_linear_1_286" x1="1.20691e+06" y1="494032" x2="-461097" y2="-1.22027e+06" gradientUnits="userSpaceOnUse">
<stop stop-color="#C9F2EF"/>
<stop offset="1" stop-color="#000054"/>
</linearGradient>
<linearGradient id="paint28_linear_1_286" x1="790319" y1="703388" x2="-703268" y2="-844059" gradientUnits="userSpaceOnUse">
<stop stop-color="#C9F2EF"/>
<stop offset="1" stop-color="#000054"/>
</linearGradient>
<linearGradient id="paint29_linear_1_286" x1="633198" y1="781922" x2="-782667" y2="-740242" gradientUnits="userSpaceOnUse">
<stop stop-color="#C9F2EF"/>
<stop offset="1" stop-color="#000054"/>
</linearGradient>
<linearGradient id="paint30_linear_1_286" x1="430926" y1="782942" x2="-734443" y2="-639659" gradientUnits="userSpaceOnUse">
<stop stop-color="#C9F2EF"/>
<stop offset="1" stop-color="#000054"/>
</linearGradient>
<linearGradient id="paint31_linear_1_286" x1="421710" y1="831510" x2="-811339" y2="-613075" gradientUnits="userSpaceOnUse">
<stop stop-color="#C9F2EF"/>
<stop offset="1" stop-color="#000054"/>
</linearGradient>
<linearGradient id="paint32_linear_1_286" x1="387068" y1="824979" x2="-655130" y2="-713830" gradientUnits="userSpaceOnUse">
<stop stop-color="#C9F2EF"/>
<stop offset="1" stop-color="#000054"/>
</linearGradient>
<linearGradient id="paint33_linear_1_286" x1="430013" y1="887888" x2="-646736" y2="-701935" gradientUnits="userSpaceOnUse">
<stop stop-color="#C9F2EF"/>
<stop offset="1" stop-color="#000054"/>
</linearGradient>
<linearGradient id="paint34_linear_1_286" x1="436910" y1="1.00261e+06" x2="-389698" y2="-686278" gradientUnits="userSpaceOnUse">
<stop stop-color="#C9F2EF"/>
<stop offset="1" stop-color="#000054"/>
</linearGradient>
<linearGradient id="paint35_linear_1_286" x1="699092" y1="1.13543e+06" x2="864721" y2="73221.4" gradientUnits="userSpaceOnUse">
<stop stop-color="#C9F2EF"/>
<stop offset="1" stop-color="#000054"/>
</linearGradient>
<linearGradient id="paint36_linear_1_286" x1="-376267" y1="417550" x2="-1.29188e+06" y2="739278" gradientUnits="userSpaceOnUse">
<stop stop-color="#C9F2EF"/>
<stop offset="1" stop-color="#000054"/>
</linearGradient>
<linearGradient id="paint37_linear_1_286" x1="-33536.5" y1="759389" x2="-1.6993e+06" y2="499649" gradientUnits="userSpaceOnUse">
<stop stop-color="#C9F2EF"/>
<stop offset="1" stop-color="#000054"/>
</linearGradient>
<linearGradient id="paint38_linear_1_286" x1="-54686.7" y1="752197" x2="-1.80183e+06" y2="-96672.9" gradientUnits="userSpaceOnUse">
<stop stop-color="#C9F2EF"/>
<stop offset="1" stop-color="#000054"/>
</linearGradient>
<linearGradient id="paint39_linear_1_286" x1="-23985.8" y1="822158" x2="-1.80921e+06" y2="-76219" gradientUnits="userSpaceOnUse">
<stop stop-color="#C9F2EF"/>
<stop offset="1" stop-color="#000054"/>
</linearGradient>
<linearGradient id="paint40_linear_1_286" x1="-12382" y1="809730" x2="-1.80588e+06" y2="-166107" gradientUnits="userSpaceOnUse">
<stop stop-color="#C9F2EF"/>
<stop offset="1" stop-color="#000054"/>
</linearGradient>
<linearGradient id="paint41_linear_1_286" x1="-70897.7" y1="837523" x2="-1.83165e+06" y2="-267001" gradientUnits="userSpaceOnUse">
<stop stop-color="#C9F2EF"/>
<stop offset="1" stop-color="#000054"/>
</linearGradient>
<linearGradient id="paint42_linear_1_286" x1="-75950.5" y1="825012" x2="-1.84634e+06" y2="-311920" gradientUnits="userSpaceOnUse">
<stop stop-color="#C9F2EF"/>
<stop offset="1" stop-color="#000054"/>
</linearGradient>
<linearGradient id="paint43_linear_1_286" x1="-88133.5" y1="814730" x2="-1.86815e+06" y2="-349387" gradientUnits="userSpaceOnUse">
<stop stop-color="#C9F2EF"/>
<stop offset="1" stop-color="#000054"/>
</linearGradient>
<linearGradient id="paint44_linear_1_286" x1="-143298" y1="831734" x2="-1.90541e+06" y2="-396239" gradientUnits="userSpaceOnUse">
<stop stop-color="#C9F2EF"/>
<stop offset="1" stop-color="#000054"/>
</linearGradient>
<linearGradient id="paint45_linear_1_286" x1="-160361" y1="821597" x2="-1.9348e+06" y2="-423628" gradientUnits="userSpaceOnUse">
<stop stop-color="#C9F2EF"/>
<stop offset="1" stop-color="#000054"/>
</linearGradient>
<linearGradient id="paint46_linear_1_286" x1="-212998" y1="834477" x2="-1.97702e+06" y2="-456332" gradientUnits="userSpaceOnUse">
<stop stop-color="#C9F2EF"/>
<stop offset="1" stop-color="#000054"/>
</linearGradient>
<linearGradient id="paint47_linear_1_286" x1="-239765" y1="823638" x2="-1.98349e+06" y2="-455213" gradientUnits="userSpaceOnUse">
<stop stop-color="#C9F2EF"/>
<stop offset="1" stop-color="#000054"/>
</linearGradient>
<linearGradient id="paint48_linear_1_286" x1="-265258" y1="837899" x2="-2.04109e+06" y2="-432209" gradientUnits="userSpaceOnUse">
<stop stop-color="#C9F2EF"/>
<stop offset="1" stop-color="#000054"/>
</linearGradient>
<linearGradient id="paint49_linear_1_286" x1="-312364" y1="824529" x2="-2.06827e+06" y2="-502777" gradientUnits="userSpaceOnUse">
<stop stop-color="#C9F2EF"/>
<stop offset="1" stop-color="#000054"/>
</linearGradient>
<linearGradient id="paint50_linear_1_286" x1="-340179" y1="840465" x2="-2.14239e+06" y2="-490031" gradientUnits="userSpaceOnUse">
<stop stop-color="#C9F2EF"/>
<stop offset="1" stop-color="#000054"/>
</linearGradient>
<linearGradient id="paint51_linear_1_286" x1="-386828" y1="827077" x2="-2.17284e+06" y2="-553041" gradientUnits="userSpaceOnUse">
<stop stop-color="#C9F2EF"/>
<stop offset="1" stop-color="#000054"/>
</linearGradient>
<linearGradient id="paint52_linear_1_286" x1="-415443" y1="836801" x2="-2.23153e+06" y2="-535994" gradientUnits="userSpaceOnUse">
<stop stop-color="#C9F2EF"/>
<stop offset="1" stop-color="#000054"/>
</linearGradient>
<linearGradient id="paint53_linear_1_286" x1="-442220" y1="826984" x2="-2.27296e+06" y2="-556887" gradientUnits="userSpaceOnUse">
<stop stop-color="#C9F2EF"/>
<stop offset="1" stop-color="#000054"/>
</linearGradient>
<linearGradient id="paint54_linear_1_286" x1="-489194" y1="814493" x2="-2.30774e+06" y2="-612144" gradientUnits="userSpaceOnUse">
<stop stop-color="#C9F2EF"/>
<stop offset="1" stop-color="#000054"/>
</linearGradient>
<linearGradient id="paint55_linear_1_286" x1="-520155" y1="822599" x2="-2.36745e+06" y2="-598523" gradientUnits="userSpaceOnUse">
<stop stop-color="#C9F2EF"/>
<stop offset="1" stop-color="#000054"/>
</linearGradient>
<linearGradient id="paint56_linear_1_286" x1="-567244" y1="810353" x2="-2.40466e+06" y2="-649721" gradientUnits="userSpaceOnUse">
<stop stop-color="#C9F2EF"/>
<stop offset="1" stop-color="#000054"/>
</linearGradient>
<linearGradient id="paint57_linear_1_286" x1="-599337" y1="817418" x2="-2.46485e+06" y2="-638138" gradientUnits="userSpaceOnUse">
<stop stop-color="#C9F2EF"/>
<stop offset="1" stop-color="#000054"/>
</linearGradient>
<linearGradient id="paint58_linear_1_286" x1="-629696" y1="807974" x2="-2.51037e+06" y2="-657767" gradientUnits="userSpaceOnUse">
<stop stop-color="#C9F2EF"/>
<stop offset="1" stop-color="#000054"/>
</linearGradient>
<linearGradient id="paint59_linear_1_286" x1="-679832" y1="811515" x2="-2.56495e+06" y2="-676522" gradientUnits="userSpaceOnUse">
<stop stop-color="#C9F2EF"/>
<stop offset="1" stop-color="#000054"/>
</linearGradient>
<linearGradient id="paint60_linear_1_286" x1="-711317" y1="802013" x2="-2.61177e+06" y2="-696033" gradientUnits="userSpaceOnUse">
<stop stop-color="#C9F2EF"/>
<stop offset="1" stop-color="#000054"/>
</linearGradient>
<linearGradient id="paint61_linear_1_286" x1="-745704" y1="806240" x2="-2.68356e+06" y2="-698369" gradientUnits="userSpaceOnUse">
<stop stop-color="#C9F2EF"/>
<stop offset="1" stop-color="#000054"/>
</linearGradient>
<linearGradient id="paint62_linear_1_286" x1="-794058" y1="793876" x2="-2.72658e+06" y2="-744056" gradientUnits="userSpaceOnUse">
<stop stop-color="#C9F2EF"/>
<stop offset="1" stop-color="#000054"/>
</linearGradient>
<linearGradient id="paint63_linear_1_286" x1="-827286" y1="784043" x2="-2.77497e+06" y2="-763652" gradientUnits="userSpaceOnUse">
<stop stop-color="#C9F2EF"/>
<stop offset="1" stop-color="#000054"/>
</linearGradient>
<linearGradient id="paint64_linear_1_286" x1="-875973" y1="786203" x2="-2.80954e+06" y2="-765137" gradientUnits="userSpaceOnUse">
<stop stop-color="#C9F2EF"/>
<stop offset="1" stop-color="#000054"/>
</linearGradient>
<linearGradient id="paint65_linear_1_286" x1="-909885" y1="776331" x2="-2.85906e+06" y2="-785036" gradientUnits="userSpaceOnUse">
<stop stop-color="#C9F2EF"/>
<stop offset="1" stop-color="#000054"/>
</linearGradient>
<linearGradient id="paint66_linear_1_286" x1="-946540" y1="779911" x2="-2.92091e+06" y2="-780901" gradientUnits="userSpaceOnUse">
<stop stop-color="#C9F2EF"/>
<stop offset="1" stop-color="#000054"/>
</linearGradient>
<linearGradient id="paint67_linear_1_286" x1="-995879" y1="767643" x2="-2.96814e+06" y2="-823248" gradientUnits="userSpaceOnUse">
<stop stop-color="#C9F2EF"/>
<stop offset="1" stop-color="#000054"/>
</linearGradient>
<linearGradient id="paint68_linear_1_286" x1="-1.03344e+06" y1="770671" x2="-3.03056e+06" y2="-820146" gradientUnits="userSpaceOnUse">
<stop stop-color="#C9F2EF"/>
<stop offset="1" stop-color="#000054"/>
</linearGradient>
<linearGradient id="paint69_linear_1_286" x1="-1.08333e+06" y1="758326" x2="-3.07916e+06" y2="-861414" gradientUnits="userSpaceOnUse">
<stop stop-color="#C9F2EF"/>
<stop offset="1" stop-color="#000054"/>
</linearGradient>
<linearGradient id="paint70_linear_1_286" x1="-1.1218e+06" y1="760827" x2="-3.14227e+06" y2="-859356" gradientUnits="userSpaceOnUse">
<stop stop-color="#C9F2EF"/>
<stop offset="1" stop-color="#000054"/>
</linearGradient>
<linearGradient id="paint71_linear_1_286" x1="-1.15865e+06" y1="750532" x2="-3.19494e+06" y2="-880200" gradientUnits="userSpaceOnUse">
<stop stop-color="#C9F2EF"/>
<stop offset="1" stop-color="#000054"/>
</linearGradient>
<clipPath id="clip0_1_286">
<rect width="1440" height="236" fill="white"/>
</clipPath>
</defs>
</svg>
