<svg version="1.1" viewBox="0 0 640 400" xmlns="http://www.w3.org/2000/svg" xmlns:xlink="http://www.w3.org/1999/xlink" xmlns:svgjs="http://svgjs.dev/svgjs" matcher="0.1145880903381864"><g viewBox="0 0 640 400" matcher="0.1145880903381864"><g matcher="0.1145880903381864"><g matcher="0.1145880903381864"><g matcher="0.1145880903381864"><svg viewBox="0 0 640 400" data-background-color="#000000" preserveAspectRatio="xMidYMid meet" height="400" width="640" xmlns="http://www.w3.org/2000/svg" xmlns:xlink="http://www.w3.org/1999/xlink"><rect width="640" height="400" x="0" y="0" opacity="1" fill="#000000" data-fill-palette-color="background" id="background"></rect><g id="tight-bounds" transform="matrix(1,0,0,1,122.24000000000001,136.06415422579857)"><svg viewBox="0 0 395.52 127.87169154840282" height="127.87169154840282" width="395.52"><rect width="395.52032470703125" height="127.87220001220703" fill="url(#133f18e8-e8d1-45c9-b530-8c26d0cdb859)" mask="url(#9638fd25-8345-499b-ba8e-8a5353840a60)" data-fill-palette-color="tertiary"></rect><g><svg viewBox="0 0 395.52 127.87169154840282" height="127.87169154840282" width="395.52"><g><svg viewBox="0 0 395.52 127.87169154840282" height="127.87169154840282" width="395.52"><g id="textblocktransform"><svg viewBox="0 0 395.52 127.87169154840282" height="127.87169154840282" width="395.52" id="textblock"><g><svg viewBox="0 0 395.52 127.87169154840282" height="127.87169154840282" width="395.52"><path d="M394.594 27.426C392.735 14.153 387.435 10.463 387.435 10.463 371.165-3.208 350.86-0.262 332.619 1.703 300.414 1.783 268.339 4.703 236.208 6.269 168.767 6.508 100.749 2.579 33.643 12.268 27.339 15.241-6.54 12.852 1.121 29.125 3.129 35.894 10.456 43.407 10.232 49.619 11.236 50.707 12.631 48.212 13.226 49.778 15.309 53.999 18.711 52.008 21.501 54.503 17.614 61.166 20.403 66.714 23.062 72.528 18.377 74.041 12.371 73.324 9.675 78.341 9.396 81.978 7.89 81.288 6.235 81.129 5.026 81.023 2.59 81.421 2.999 82.562 4.394 86.465-1.594 88.721 2.162 92.544-0.422 96.685 3.948 100.268 3.353 104.755 3.278 105.657 3.687 106.427 4.338 106.64 7.22 107.781 3.018 110.011 3.464 112.427 33.029 128.938 65.104 117.523 95.394 125.116 103.259 119.806 97.346 127 100.489 125.885 102.943 124.585 104.728 129.974 107.499 126.921 107.927 126.045 107.276 123.974 108.8 124.372 109.6 124.585 110.307 124.532 110.418 123.31 110.586 121.479 109.117 122.62 108.726 121.665 112.947 116.833 111.906 128.328 115.866 127.85 115.68 126.443 114.528 124.425 116.889 124.691 119.232 122.673 119.306 121.001 121.389 125.54 121.463 126.523 121.835 127.213 122.43 127.691 128.938 122.753 135.409 129.443 142.233 127.213 146.417 124.77 150.433 128.54 154.672 127.611 156.16 126.868 157.666 125.54 159.098 127.77 176.632 128.248 195.319 126.257 211.943 127.85 256.364 124.877 303.835 129.071 350.674 125.142 361.719 123.629 373.192 121.479 383.958 119.753 383.958 119.753 392.679 115.028 392.679 93.791S394.538 75.209 394.817 58.299C395.096 41.389 396.398 40.699 394.538 27.426Z" opacity="1" fill="url(#133f18e8-e8d1-45c9-b530-8c26d0cdb859)" data-fill-palette-color="tertiary"></path><g transform="matrix(1,0,0,1,55.76832,26.230666666666668)"><svg width="283.98335999999995" viewBox="-0.30000001192092896 -40.79999923706055 205.02999877929688 54.45000076293945" height="75.41035821506948" data-palette-color="#000000"><path d="M22.1-22.3L36.2-2.15 40.35-1.75Q40.55-0.9 40.4 0.1L40.4 0.1Q32.9-0.05 30.15-0.05L30.15-0.05Q25.95-0.05 23.7 0.15L23.7 0.15Q23.4-0.7 23.65-1.65L23.65-1.65 28.75-2.35Q27.9-4.2 25.35-7.75L25.35-7.75 18.7-17.35 7.3-2.2 11.35-1.7Q11.55-0.95 11.35 0.15L11.35 0.15Q8.2 0 5.65 0L5.65 0Q4.05 0-0.15 0.1L-0.15 0.1Q-0.45-0.8-0.15-1.7L-0.15-1.7 3.5-2.3Q6.1-4.8 7.55-6.75L7.55-6.75 17.15-19.65 4.8-37.6 0.75-38.1Q0.55-38.85 0.75-39.95L0.75-39.95Q3.5-39.75 8.8-39.75L8.8-39.75Q13.7-39.75 16.9-39.9L16.9-39.9Q17.2-39 16.9-38.1L16.9-38.1 11.95-37.15Q12.85-35.5 13.9-34.1L13.9-34.1 20.6-24.45 30.45-37.6 26.4-38.1Q26.2-38.85 26.4-39.95L26.4-39.95Q29.15-39.75 32.15-39.75L32.15-39.75Q34.7-39.75 37.95-39.9L37.95-39.9Q38.25-39 37.95-38.1L37.95-38.1 34.8-37.5Q32.3-35.75 30.25-33.05L30.25-33.05 22.1-22.3ZM50.1-18.6L50.1-18.6 50.1-2.55 54.15-1.8Q54.2-1.55 54.22-1.35 54.25-1.15 54.25-0.9L54.25-0.9Q54.25-0.65 54.22-0.38 54.2-0.1 54.15 0.2L54.15 0.2Q51 0.05 47.7 0.05L47.7 0.05Q46.55 0.05 44.92 0.08 43.3 0.1 41.2 0.15L41.2 0.15Q41.05-0.3 41.05-0.8L41.05-0.8Q41.05-1.25 41.2-1.8L41.2-1.8 45.15-2.35Q45.25-3.75 45.3-5.33 45.35-6.9 45.35-8.7L45.35-8.7 45.35-19.35Q45.35-22.65 45.2-24.25L45.2-24.25 41.25-24.75Q41.15-25 41.15-25.6L41.15-25.6Q41.15-25.85 41.15-26.1 41.15-26.35 41.25-26.65L41.25-26.65Q44.65-26.85 49.85-27.7L49.85-27.7Q50.3-27.2 50.35-26.7L50.35-26.7Q50.1-25.3 50.1-18.6ZM42.8-36.45L42.8-36.45Q42.7-36.7 42.7-36.98 42.7-37.25 42.7-37.5L42.7-37.5Q42.7-38.85 43.82-39.68 44.95-40.5 46.6-40.5L46.6-40.5Q48.15-40.5 49.12-39.58 50.1-38.65 50.1-37.05L50.1-37.05Q50.1-35.75 48.97-34.95 47.85-34.15 46.1-34.15L46.1-34.15Q44.9-34.15 43.97-34.75 43.05-35.35 42.8-36.45ZM72.1-1.7L72.1-1.7Q75.4-1.7 77.32-4.9 79.25-8.1 79.25-14.55L79.25-14.55Q79.25-19.5 77.42-22.1 75.6-24.7 72.6-24.7L72.6-24.7Q68.2-24.7 65-20.45L65-20.45 65-4.9Q67.8-1.7 72.1-1.7ZM60.25 4.75L60.25-19.55Q60.25-22.9 60.1-24.25L60.1-24.25 56.15-24.75Q56-25.55 56.15-26.65L56.15-26.65Q59.65-26.9 64.75-27.7L64.75-27.7Q65.2-27.25 65.25-26.7L65.25-26.7Q65-24.95 65-23L65-23Q69.05-27.7 74.3-27.7L74.3-27.7Q78.7-27.7 81.62-24.05 84.55-20.4 84.55-14.4L84.55-14.4Q84.55-7.45 80.72-3.23 76.9 1 71.7 1L71.7 1Q68.05 1 65-1.35L65-1.35 65 10.9 70.05 11.65Q70.25 12.45 70.05 13.65L70.05 13.65Q66.9 13.5 63.1 13.5L63.1 13.5Q60.3 13.5 56.1 13.6L56.1 13.6Q55.8 12.6 56.1 11.65L56.1 11.65 60.05 11.1Q60.25 8.35 60.25 4.75L60.25 4.75ZM103.64-1.7L103.64-1.7Q106.94-1.7 108.87-4.9 110.79-8.1 110.79-14.55L110.79-14.55Q110.79-19.5 108.97-22.1 107.14-24.7 104.14-24.7L104.14-24.7Q99.74-24.7 96.54-20.45L96.54-20.45 96.54-4.9Q99.34-1.7 103.64-1.7ZM91.79 4.75L91.79-19.55Q91.79-22.9 91.64-24.25L91.64-24.25 87.69-24.75Q87.54-25.55 87.69-26.65L87.69-26.65Q91.19-26.9 96.29-27.7L96.29-27.7Q96.74-27.25 96.79-26.7L96.79-26.7Q96.54-24.95 96.54-23L96.54-23Q100.59-27.7 105.84-27.7L105.84-27.7Q110.24-27.7 113.17-24.05 116.09-20.4 116.09-14.4L116.09-14.4Q116.09-7.45 112.27-3.23 108.44 1 103.24 1L103.24 1Q99.59 1 96.54-1.35L96.54-1.35 96.54 10.9 101.59 11.65Q101.79 12.45 101.59 13.65L101.59 13.65Q98.44 13.5 94.64 13.5L94.64 13.5Q91.84 13.5 87.64 13.6L87.64 13.6Q87.34 12.6 87.64 11.65L87.64 11.65 91.59 11.1Q91.79 8.35 91.79 4.75L91.79 4.75ZM128.14-31.7L128.14-31.7 128.14-2.55 132.19-1.8Q132.39-1 132.19 0.2L132.19 0.2Q129.04 0.05 125.74 0.05L125.74 0.05Q123.44 0.05 119.24 0.15L119.24 0.15Q118.94-0.8 119.24-1.8L119.24-1.8 123.19-2.35Q123.39-5.1 123.39-8.7L123.39-8.7 123.39-37.35 119.29-37.85Q119.09-38.6 119.29-39.75L119.29-39.75Q122.74-40 127.89-40.8L127.89-40.8Q128.34-40.3 128.39-39.8L128.39-39.8Q128.14-38.5 128.14-31.7ZM156.29-14.1L156.29-14.1 140.59-14.1Q140.14-1.35 148.24-1.35L148.24-1.35Q151.69-1.35 155.29-4.4L155.29-4.4Q156.04-3.95 156.44-2.85L156.44-2.85Q152.99 1 147.69 1L147.69 1Q135.49 1 135.49-13.35L135.49-13.35Q135.49-20.15 139.09-23.93 142.69-27.7 147.49-27.7L147.49-27.7Q152.74-27.7 155.04-24.05 157.34-20.4 157.34-14.55L157.34-14.55Q156.84-14.15 156.29-14.1ZM147.39-25.7L147.39-25.7Q144.79-25.7 142.96-23 141.14-20.3 140.74-16.1L140.74-16.1 146.94-16.1Q150.64-16.1 152.24-16.55L152.24-16.55Q152.24-20.65 150.99-23.18 149.74-25.7 147.39-25.7ZM165.74-8.15L165.74-8.15 165.74-37.6 161.69-38.15Q161.39-39.05 161.69-39.95L161.69-39.95 168.53-39.8 188.74-39.8 188.79-28.2Q187.69-28 186.94-28.2L186.94-28.2 184.59-37.25 171.09-37.25 171.09-22.5 179.09-22.65 180.24-27.55Q180.99-27.75 182.09-27.55L182.09-27.55Q181.89-24.75 181.89-21.1L181.89-21.1Q181.89-17.75 182.04-14.6L182.04-14.6Q181.14-14.3 180.24-14.6L180.24-14.6 179.14-19.8 171.09-19.95 171.09-2.2 175.64-1.7Q175.84-0.95 175.64 0.15L175.64 0.15Q172.49 0 168.53 0L168.53 0Q165.59 0 161.39 0.1L161.39 0.1Q161.09-0.8 161.39-1.7L161.39-1.7 165.53-2.3Q165.74-4.2 165.74-8.15ZM200.58-18.6L200.58-18.6 200.58-2.55 204.63-1.8Q204.68-1.55 204.71-1.35 204.73-1.15 204.73-0.9L204.73-0.9Q204.73-0.65 204.71-0.38 204.68-0.1 204.63 0.2L204.63 0.2Q201.48 0.05 198.18 0.05L198.18 0.05Q197.03 0.05 195.41 0.08 193.78 0.1 191.68 0.15L191.68 0.15Q191.53-0.3 191.53-0.8L191.53-0.8Q191.53-1.25 191.68-1.8L191.68-1.8 195.63-2.35Q195.73-3.75 195.78-5.33 195.83-6.9 195.83-8.7L195.83-8.7 195.83-19.35Q195.83-22.65 195.68-24.25L195.68-24.25 191.73-24.75Q191.63-25 191.63-25.6L191.63-25.6Q191.63-25.85 191.63-26.1 191.63-26.35 191.73-26.65L191.73-26.65Q195.13-26.85 200.33-27.7L200.33-27.7Q200.78-27.2 200.83-26.7L200.83-26.7Q200.58-25.3 200.58-18.6ZM193.28-36.45L193.28-36.45Q193.18-36.7 193.18-36.98 193.18-37.25 193.18-37.5L193.18-37.5Q193.18-38.85 194.31-39.68 195.43-40.5 197.08-40.5L197.08-40.5Q198.63-40.5 199.61-39.58 200.58-38.65 200.58-37.05L200.58-37.05Q200.58-35.75 199.46-34.95 198.33-34.15 196.58-34.15L196.58-34.15Q195.38-34.15 194.46-34.75 193.53-35.35 193.28-36.45Z" opacity="1" transform="matrix(1,0,0,1,0,0)" fill="#000000" class="wordmark-text-0" data-fill-palette-color="quaternary" id="text-0"></path></svg></g></svg></g></svg></g></svg></g><g></g></svg></g><defs></defs><mask id="9638fd25-8345-499b-ba8e-8a5353840a60"><g id="SvgjsG1132"><svg viewBox="0 0 395.52 127.87169154840282" height="127.87169154840282" width="395.52"><g><svg viewBox="0 0 395.52 127.87169154840282" height="127.87169154840282" width="395.52"><g><svg viewBox="0 0 395.52 127.87169154840282" height="127.87169154840282" width="395.52"><g id="SvgjsG1131"><svg viewBox="0 0 395.52 127.87169154840282" height="127.87169154840282" width="395.52" id="SvgjsSvg1130"><g><svg viewBox="0 0 395.52 127.87169154840282" height="127.87169154840282" width="395.52"><path d="M394.594 27.426C392.735 14.153 387.435 10.463 387.435 10.463 371.165-3.208 350.86-0.262 332.619 1.703 300.414 1.783 268.339 4.703 236.208 6.269 168.767 6.508 100.749 2.579 33.643 12.268 27.339 15.241-6.54 12.852 1.121 29.125 3.129 35.894 10.456 43.407 10.232 49.619 11.236 50.707 12.631 48.212 13.226 49.778 15.309 53.999 18.711 52.008 21.501 54.503 17.614 61.166 20.403 66.714 23.062 72.528 18.377 74.041 12.371 73.324 9.675 78.341 9.396 81.978 7.89 81.288 6.235 81.129 5.026 81.023 2.59 81.421 2.999 82.562 4.394 86.465-1.594 88.721 2.162 92.544-0.422 96.685 3.948 100.268 3.353 104.755 3.278 105.657 3.687 106.427 4.338 106.64 7.22 107.781 3.018 110.011 3.464 112.427 33.029 128.938 65.104 117.523 95.394 125.116 103.259 119.806 97.346 127 100.489 125.885 102.943 124.585 104.728 129.974 107.499 126.921 107.927 126.045 107.276 123.974 108.8 124.372 109.6 124.585 110.307 124.532 110.418 123.31 110.586 121.479 109.117 122.62 108.726 121.665 112.947 116.833 111.906 128.328 115.866 127.85 115.68 126.443 114.528 124.425 116.889 124.691 119.232 122.673 119.306 121.001 121.389 125.54 121.463 126.523 121.835 127.213 122.43 127.691 128.938 122.753 135.409 129.443 142.233 127.213 146.417 124.77 150.433 128.54 154.672 127.611 156.16 126.868 157.666 125.54 159.098 127.77 176.632 128.248 195.319 126.257 211.943 127.85 256.364 124.877 303.835 129.071 350.674 125.142 361.719 123.629 373.192 121.479 383.958 119.753 383.958 119.753 392.679 115.028 392.679 93.791S394.538 75.209 394.817 58.299C395.096 41.389 396.398 40.699 394.538 27.426Z" opacity="1" fill="white"></path><g transform="matrix(1,0,0,1,55.76832,26.230666666666668)"><svg width="283.98335999999995" viewBox="-0.30000001192092896 -40.79999923706055 205.02999877929688 54.45000076293945" height="75.41035821506948" data-palette-color="#000000"><path d="M22.1-22.3L36.2-2.15 40.35-1.75Q40.55-0.9 40.4 0.1L40.4 0.1Q32.9-0.05 30.15-0.05L30.15-0.05Q25.95-0.05 23.7 0.15L23.7 0.15Q23.4-0.7 23.65-1.65L23.65-1.65 28.75-2.35Q27.9-4.2 25.35-7.75L25.35-7.75 18.7-17.35 7.3-2.2 11.35-1.7Q11.55-0.95 11.35 0.15L11.35 0.15Q8.2 0 5.65 0L5.65 0Q4.05 0-0.15 0.1L-0.15 0.1Q-0.45-0.8-0.15-1.7L-0.15-1.7 3.5-2.3Q6.1-4.8 7.55-6.75L7.55-6.75 17.15-19.65 4.8-37.6 0.75-38.1Q0.55-38.85 0.75-39.95L0.75-39.95Q3.5-39.75 8.8-39.75L8.8-39.75Q13.7-39.75 16.9-39.9L16.9-39.9Q17.2-39 16.9-38.1L16.9-38.1 11.95-37.15Q12.85-35.5 13.9-34.1L13.9-34.1 20.6-24.45 30.45-37.6 26.4-38.1Q26.2-38.85 26.4-39.95L26.4-39.95Q29.15-39.75 32.15-39.75L32.15-39.75Q34.7-39.75 37.95-39.9L37.95-39.9Q38.25-39 37.95-38.1L37.95-38.1 34.8-37.5Q32.3-35.75 30.25-33.05L30.25-33.05 22.1-22.3ZM50.1-18.6L50.1-18.6 50.1-2.55 54.15-1.8Q54.2-1.55 54.22-1.35 54.25-1.15 54.25-0.9L54.25-0.9Q54.25-0.65 54.22-0.38 54.2-0.1 54.15 0.2L54.15 0.2Q51 0.05 47.7 0.05L47.7 0.05Q46.55 0.05 44.92 0.08 43.3 0.1 41.2 0.15L41.2 0.15Q41.05-0.3 41.05-0.8L41.05-0.8Q41.05-1.25 41.2-1.8L41.2-1.8 45.15-2.35Q45.25-3.75 45.3-5.33 45.35-6.9 45.35-8.7L45.35-8.7 45.35-19.35Q45.35-22.65 45.2-24.25L45.2-24.25 41.25-24.75Q41.15-25 41.15-25.6L41.15-25.6Q41.15-25.85 41.15-26.1 41.15-26.35 41.25-26.65L41.25-26.65Q44.65-26.85 49.85-27.7L49.85-27.7Q50.3-27.2 50.35-26.7L50.35-26.7Q50.1-25.3 50.1-18.6ZM42.8-36.45L42.8-36.45Q42.7-36.7 42.7-36.98 42.7-37.25 42.7-37.5L42.7-37.5Q42.7-38.85 43.82-39.68 44.95-40.5 46.6-40.5L46.6-40.5Q48.15-40.5 49.12-39.58 50.1-38.65 50.1-37.05L50.1-37.05Q50.1-35.75 48.97-34.95 47.85-34.15 46.1-34.15L46.1-34.15Q44.9-34.15 43.97-34.75 43.05-35.35 42.8-36.45ZM72.1-1.7L72.1-1.7Q75.4-1.7 77.32-4.9 79.25-8.1 79.25-14.55L79.25-14.55Q79.25-19.5 77.42-22.1 75.6-24.7 72.6-24.7L72.6-24.7Q68.2-24.7 65-20.45L65-20.45 65-4.9Q67.8-1.7 72.1-1.7ZM60.25 4.75L60.25-19.55Q60.25-22.9 60.1-24.25L60.1-24.25 56.15-24.75Q56-25.55 56.15-26.65L56.15-26.65Q59.65-26.9 64.75-27.7L64.75-27.7Q65.2-27.25 65.25-26.7L65.25-26.7Q65-24.95 65-23L65-23Q69.05-27.7 74.3-27.7L74.3-27.7Q78.7-27.7 81.62-24.05 84.55-20.4 84.55-14.4L84.55-14.4Q84.55-7.45 80.72-3.23 76.9 1 71.7 1L71.7 1Q68.05 1 65-1.35L65-1.35 65 10.9 70.05 11.65Q70.25 12.45 70.05 13.65L70.05 13.65Q66.9 13.5 63.1 13.5L63.1 13.5Q60.3 13.5 56.1 13.6L56.1 13.6Q55.8 12.6 56.1 11.65L56.1 11.65 60.05 11.1Q60.25 8.35 60.25 4.75L60.25 4.75ZM103.64-1.7L103.64-1.7Q106.94-1.7 108.87-4.9 110.79-8.1 110.79-14.55L110.79-14.55Q110.79-19.5 108.97-22.1 107.14-24.7 104.14-24.7L104.14-24.7Q99.74-24.7 96.54-20.45L96.54-20.45 96.54-4.9Q99.34-1.7 103.64-1.7ZM91.79 4.75L91.79-19.55Q91.79-22.9 91.64-24.25L91.64-24.25 87.69-24.75Q87.54-25.55 87.69-26.65L87.69-26.65Q91.19-26.9 96.29-27.7L96.29-27.7Q96.74-27.25 96.79-26.7L96.79-26.7Q96.54-24.95 96.54-23L96.54-23Q100.59-27.7 105.84-27.7L105.84-27.7Q110.24-27.7 113.17-24.05 116.09-20.4 116.09-14.4L116.09-14.4Q116.09-7.45 112.27-3.23 108.44 1 103.24 1L103.24 1Q99.59 1 96.54-1.35L96.54-1.35 96.54 10.9 101.59 11.65Q101.79 12.45 101.59 13.65L101.59 13.65Q98.44 13.5 94.64 13.5L94.64 13.5Q91.84 13.5 87.64 13.6L87.64 13.6Q87.34 12.6 87.64 11.65L87.64 11.65 91.59 11.1Q91.79 8.35 91.79 4.75L91.79 4.75ZM128.14-31.7L128.14-31.7 128.14-2.55 132.19-1.8Q132.39-1 132.19 0.2L132.19 0.2Q129.04 0.05 125.74 0.05L125.74 0.05Q123.44 0.05 119.24 0.15L119.24 0.15Q118.94-0.8 119.24-1.8L119.24-1.8 123.19-2.35Q123.39-5.1 123.39-8.7L123.39-8.7 123.39-37.35 119.29-37.85Q119.09-38.6 119.29-39.75L119.29-39.75Q122.74-40 127.89-40.8L127.89-40.8Q128.34-40.3 128.39-39.8L128.39-39.8Q128.14-38.5 128.14-31.7ZM156.29-14.1L156.29-14.1 140.59-14.1Q140.14-1.35 148.24-1.35L148.24-1.35Q151.69-1.35 155.29-4.4L155.29-4.4Q156.04-3.95 156.44-2.85L156.44-2.85Q152.99 1 147.69 1L147.69 1Q135.49 1 135.49-13.35L135.49-13.35Q135.49-20.15 139.09-23.93 142.69-27.7 147.49-27.7L147.49-27.7Q152.74-27.7 155.04-24.05 157.34-20.4 157.34-14.55L157.34-14.55Q156.84-14.15 156.29-14.1ZM147.39-25.7L147.39-25.7Q144.79-25.7 142.96-23 141.14-20.3 140.74-16.1L140.74-16.1 146.94-16.1Q150.64-16.1 152.24-16.55L152.24-16.55Q152.24-20.65 150.99-23.18 149.74-25.7 147.39-25.7ZM165.74-8.15L165.74-8.15 165.74-37.6 161.69-38.15Q161.39-39.05 161.69-39.95L161.69-39.95 168.53-39.8 188.74-39.8 188.79-28.2Q187.69-28 186.94-28.2L186.94-28.2 184.59-37.25 171.09-37.25 171.09-22.5 179.09-22.65 180.24-27.55Q180.99-27.75 182.09-27.55L182.09-27.55Q181.89-24.75 181.89-21.1L181.89-21.1Q181.89-17.75 182.04-14.6L182.04-14.6Q181.14-14.3 180.24-14.6L180.24-14.6 179.14-19.8 171.09-19.95 171.09-2.2 175.64-1.7Q175.84-0.95 175.64 0.15L175.64 0.15Q172.49 0 168.53 0L168.53 0Q165.59 0 161.39 0.1L161.39 0.1Q161.09-0.8 161.39-1.7L161.39-1.7 165.53-2.3Q165.74-4.2 165.74-8.15ZM200.58-18.6L200.58-18.6 200.58-2.55 204.63-1.8Q204.68-1.55 204.71-1.35 204.73-1.15 204.73-0.9L204.73-0.9Q204.73-0.65 204.71-0.38 204.68-0.1 204.63 0.2L204.63 0.2Q201.48 0.05 198.18 0.05L198.18 0.05Q197.03 0.05 195.41 0.08 193.78 0.1 191.68 0.15L191.68 0.15Q191.53-0.3 191.53-0.8L191.53-0.8Q191.53-1.25 191.68-1.8L191.68-1.8 195.63-2.35Q195.73-3.75 195.78-5.33 195.83-6.9 195.83-8.7L195.83-8.7 195.83-19.35Q195.83-22.65 195.68-24.25L195.68-24.25 191.73-24.75Q191.63-25 191.63-25.6L191.63-25.6Q191.63-25.85 191.63-26.1 191.63-26.35 191.73-26.65L191.73-26.65Q195.13-26.85 200.33-27.7L200.33-27.7Q200.78-27.2 200.83-26.7L200.83-26.7Q200.58-25.3 200.58-18.6ZM193.28-36.45L193.28-36.45Q193.18-36.7 193.18-36.98 193.18-37.25 193.18-37.5L193.18-37.5Q193.18-38.85 194.31-39.68 195.43-40.5 197.08-40.5L197.08-40.5Q198.63-40.5 199.61-39.58 200.58-38.65 200.58-37.05L200.58-37.05Q200.58-35.75 199.46-34.95 198.33-34.15 196.58-34.15L196.58-34.15Q195.38-34.15 194.46-34.75 193.53-35.35 193.28-36.45Z" opacity="1" transform="matrix(1,0,0,1,0,0)" fill="black" class="wordmark-text-0" id="SvgjsPath1129"></path></svg></g></svg></g></svg></g></svg></g><g></g></svg></g><defs><mask></mask></defs></svg><rect width="395.52" height="127.87169154840282" fill="black" stroke="none" visibility="hidden"></rect></g></mask><linearGradient x1="0" x2="1" y1="0.578" y2="0.595" id="133f18e8-e8d1-45c9-b530-8c26d0cdb859"><stop stop-color="#6ee2f5" offset="0"></stop><stop stop-color="#6454f0" offset="1"></stop></linearGradient></svg><rect width="395.52" height="127.87169154840282" fill="none" stroke="none" visibility="hidden"></rect></g></svg></g></g></g></g><rect width="295.95563233855194" height="87.41036646893346" x="173.02218383072403" y="157.2948072101272" rx="2.5" ry="2.5" fill="transparent" class="logo-element-hover-target"></rect></svg>